<svg width="415" height="463" viewBox="0 0 415 463" fill="none" xmlns="http://www.w3.org/2000/svg">
<path d="M78.1921 389.443L76.732 409.913C76.732 409.913 97.0821 416.773 97.1821 420.583L57.3521 420.683L58.3521 388.683L78.1921 389.443Z" fill="#04A732"/>
<g opacity="0.6">
<path d="M64.462 407.753C64.0756 407.859 63.7412 408.102 63.522 408.438C63.3028 408.773 63.2139 409.177 63.272 409.573C63.3631 409.962 63.5989 410.301 63.9314 410.523C64.264 410.744 64.6683 410.83 65.062 410.763C65.4708 410.659 65.8266 410.407 66.061 410.057C66.2955 409.706 66.392 409.281 66.332 408.863C66.1931 408.47 65.907 408.146 65.5339 407.959C65.1609 407.773 64.73 407.738 64.332 407.863" fill="white"/>
</g>
<g opacity="0.6">
<path d="M57.3521 420.683L57.452 417.453L95.912 418.703C96.3172 418.915 96.6634 419.225 96.92 419.603C97.1765 419.982 97.3352 420.418 97.382 420.873L57.3521 420.683Z" fill="white"/>
</g>
<path d="M77.3821 409.733C77.3821 409.923 76.3821 409.983 75.3821 410.573C74.3821 411.163 73.8721 411.963 73.6921 411.883C73.5121 411.803 73.8521 410.683 75.0421 409.983C76.2321 409.283 77.4621 409.553 77.3821 409.733Z" fill="#263238"/>
<path d="M81.4621 411.603C81.4621 411.793 80.6521 412.093 79.9621 412.893C79.2721 413.693 79.0521 414.553 78.8621 414.543C78.6721 414.533 78.5821 413.423 79.4521 412.443C80.3221 411.463 81.4621 411.423 81.4621 411.603Z" fill="#263238"/>
<path d="M83.6922 416.683C83.5122 416.683 83.2822 415.743 83.8122 414.683C84.3422 413.623 85.2722 413.243 85.3522 413.413C85.4322 413.583 84.8422 414.123 84.4222 414.993C84.0022 415.863 83.8822 416.673 83.6922 416.683Z" fill="#263238"/>
<path d="M77.2022 405.033C77.1122 405.203 76.2022 404.903 75.1222 404.943C74.0422 404.983 73.1222 405.293 73.0622 405.123C73.0022 404.953 73.8122 404.293 75.1122 404.263C76.4122 404.233 77.3022 404.863 77.2022 405.033Z" fill="#263238"/>
<g opacity="0.3">
<path d="M77.1422 404.143L76.8722 407.913L57.7522 407.073L57.8522 403.773L77.1422 404.143Z" fill="black"/>
</g>
<path d="M77.4622 400.863C76.8004 401.017 76.1095 400.989 75.4622 400.783C74.7493 400.631 74.0575 400.392 73.4022 400.073C73.012 399.881 72.6345 399.664 72.2722 399.423C72.0567 399.288 71.8614 399.123 71.6922 398.933C71.5865 398.788 71.5295 398.613 71.5295 398.433C71.5295 398.254 71.5865 398.078 71.6922 397.933C71.7901 397.799 71.92 397.691 72.0702 397.619C72.2204 397.548 72.386 397.515 72.5522 397.523C72.8071 397.53 73.0597 397.574 73.3022 397.653C73.724 397.767 74.1329 397.925 74.5222 398.123C75.1854 398.449 75.7929 398.877 76.3222 399.393C77.2122 400.273 77.5022 401.013 77.4322 401.053C77.3622 401.093 76.9122 400.483 76.0022 399.753C75.4711 399.322 74.8862 398.963 74.2622 398.683C73.8965 398.523 73.5186 398.393 73.1322 398.293C72.7122 398.163 72.3522 398.153 72.2322 398.293C72.1122 398.433 72.2322 398.393 72.2322 398.523C72.3592 398.659 72.5038 398.776 72.6622 398.873C72.982 399.107 73.316 399.321 73.6622 399.513C74.269 399.842 74.905 400.113 75.5622 400.323C76.2065 400.462 76.8412 400.642 77.4622 400.863Z" fill="#263238"/>
<path d="M77.1522 401.163C76.7942 400.583 76.6329 399.902 76.6922 399.223C76.6843 398.482 76.8026 397.745 77.0422 397.043C77.19 396.631 77.374 396.233 77.5922 395.853C77.7046 395.587 77.8846 395.355 78.1143 395.179C78.3441 395.004 78.6157 394.891 78.9022 394.853C79.0794 394.864 79.2499 394.925 79.3934 395.03C79.537 395.134 79.6476 395.278 79.7122 395.443C79.8051 395.677 79.8656 395.923 79.8922 396.173C79.9464 396.623 79.9295 397.079 79.8422 397.523C79.7039 398.255 79.3879 398.942 78.9222 399.523C78.1122 400.523 77.2922 400.723 77.2722 400.663C77.2522 400.603 77.9022 400.213 78.5322 399.243C78.898 398.681 79.1369 398.047 79.2322 397.383C79.2876 397.002 79.2876 396.615 79.2322 396.233C79.2322 395.813 79.0422 395.463 78.8822 395.503C78.7222 395.543 78.3322 395.793 78.1622 396.133C77.9519 396.469 77.7744 396.824 77.6322 397.193C77.3814 397.834 77.2264 398.508 77.1722 399.193C77.0822 400.403 77.2622 401.143 77.1522 401.163Z" fill="#263238"/>
<path d="M119.602 392.863L116.222 411.453C116.222 411.453 134.152 419.773 133.862 423.263L97.4622 419.333L101.462 390.153L119.602 392.863Z" fill="#04A732"/>
<g opacity="0.6">
<path d="M105.232 408.213C104.867 408.27 104.535 408.459 104.3 408.745C104.066 409.031 103.946 409.394 103.962 409.763C104.005 410.129 104.186 410.465 104.469 410.701C104.752 410.937 105.114 411.056 105.482 411.033C105.867 410.972 106.216 410.771 106.461 410.468C106.707 410.165 106.832 409.782 106.812 409.393C106.73 409.016 106.505 408.685 106.184 408.471C105.864 408.256 105.472 408.175 105.092 408.243" fill="white"/>
</g>
<g opacity="0.6">
<path d="M97.4622 419.333L97.8722 416.393L132.942 421.393C133.294 421.625 133.581 421.942 133.778 422.314C133.976 422.686 134.077 423.102 134.072 423.523L97.4622 419.333Z" fill="white"/>
</g>
<path d="M116.832 411.313C116.832 411.493 115.902 411.443 114.952 411.883C114.002 412.323 113.422 413.003 113.272 412.883C113.122 412.763 113.532 411.803 114.692 411.283C115.852 410.763 116.892 411.163 116.832 411.313Z" fill="#263238"/>
<path d="M120.462 413.443C120.462 413.623 119.662 413.803 118.952 414.443C118.242 415.083 117.952 415.873 117.782 415.833C117.612 415.793 117.642 414.783 118.542 413.983C119.442 413.183 120.462 413.273 120.462 413.443Z" fill="#263238"/>
<path d="M121.912 418.313C121.742 418.313 121.632 417.403 122.222 416.493C122.812 415.583 123.702 415.323 123.762 415.493C123.822 415.663 123.222 416.103 122.762 416.853C122.302 417.603 122.092 418.313 121.912 418.313Z" fill="#263238"/>
<path d="M117.132 406.993C117.042 407.143 116.262 406.783 115.252 406.703C114.242 406.623 113.412 406.833 113.342 406.703C113.272 406.573 114.112 406.013 115.342 406.123C116.572 406.233 117.242 406.863 117.132 406.993Z" fill="#263238"/>
<g opacity="0.3">
<path d="M117.672 403.353L116.762 408.503L99.2722 405.743L99.6822 402.743L117.672 403.353Z" fill="black"/>
</g>
<path d="M117.752 403.233C117.131 403.304 116.503 403.208 115.932 402.953C115.291 402.745 114.68 402.456 114.112 402.093C113.762 401.885 113.428 401.651 113.112 401.393C112.924 401.248 112.759 401.076 112.622 400.883C112.524 400.741 112.477 400.57 112.488 400.398C112.498 400.226 112.567 400.062 112.682 399.933C112.789 399.825 112.92 399.742 113.063 399.692C113.207 399.642 113.361 399.625 113.512 399.643C113.744 399.672 113.97 399.736 114.182 399.833C115.193 400.232 116.084 400.882 116.772 401.723C117.214 402.169 117.514 402.736 117.632 403.353C117.542 403.403 117.212 402.793 116.442 402.023C115.999 401.579 115.502 401.193 114.962 400.873C114.643 400.687 114.309 400.529 113.962 400.403C113.592 400.243 113.262 400.193 113.142 400.353C113.022 400.513 113.092 400.433 113.142 400.563C113.246 400.702 113.367 400.826 113.502 400.933C113.792 401.183 114.092 401.413 114.382 401.623C114.907 401.979 115.462 402.287 116.042 402.543C116.629 402.728 117.201 402.959 117.752 403.233V403.233Z" fill="#263238"/>
<path d="M117.462 403.453C117.188 402.884 117.108 402.242 117.232 401.623C117.301 400.948 117.484 400.288 117.772 399.673C117.945 399.32 118.153 398.985 118.392 398.673C118.527 398.45 118.715 398.264 118.941 398.133C119.166 398.002 119.421 397.93 119.682 397.923C119.844 397.951 119.994 398.024 120.117 398.134C120.239 398.243 120.327 398.385 120.372 398.543C120.433 398.768 120.463 399 120.462 399.233C120.471 399.65 120.41 400.066 120.282 400.463C120.098 401.123 119.755 401.727 119.282 402.223C118.432 403.063 117.662 403.163 117.652 403.103C117.642 403.043 118.282 402.753 118.952 401.933C119.339 401.455 119.618 400.899 119.772 400.303C119.859 399.977 119.899 399.641 119.892 399.303C119.892 398.903 119.792 398.573 119.642 398.593C119.492 398.613 119.112 398.813 118.922 399.093C118.696 399.382 118.495 399.69 118.322 400.013C118.036 400.572 117.831 401.167 117.712 401.783C117.462 402.743 117.582 403.433 117.462 403.453Z" fill="#263238"/>
<path d="M119.972 405.733L134.252 320.663L105.122 324.553L98.292 402.543L119.972 405.733Z" fill="#263238"/>
<path d="M92.902 232.053L55.442 230.723L54.582 404.593L80.132 405.073L94.222 269.623L92.902 232.053Z" fill="#263238"/>
<path d="M111.352 228.503L134.252 320.663L105.572 328.713L91.9722 282.543L81.7021 238.393L111.352 228.503Z" fill="#263238"/>
<path d="M96.3622 257.133C96.3884 257.319 96.3884 257.507 96.3622 257.693C96.3122 258.123 96.2521 258.693 96.1721 259.293C95.9821 260.753 95.7222 262.743 95.4022 265.173C94.7322 270.173 93.8221 277.013 92.8121 284.543C91.8021 292.073 90.9922 298.983 90.4722 303.953C90.2022 306.443 90.0121 308.453 89.8921 309.843C89.8421 310.493 89.7922 311.023 89.7522 311.453C89.7461 311.643 89.7159 311.831 89.6621 312.013C89.6471 311.823 89.6471 311.633 89.6621 311.443C89.6621 311.023 89.6621 310.443 89.6621 309.833C89.7221 308.433 89.8522 306.413 90.0722 303.913C90.5022 298.913 91.2821 292.053 92.2721 284.483C93.2621 276.913 94.2722 270.063 95.0122 265.123C95.3922 262.703 95.7122 260.723 95.9422 259.263C96.0622 258.623 96.1521 258.103 96.2321 257.683C96.2538 257.495 96.2974 257.311 96.3622 257.133V257.133Z" fill="#455A64"/>
<path d="M59.5622 234.863C59.7022 234.863 60.2722 272.863 60.8322 319.663C61.3922 366.463 61.7322 404.483 61.5822 404.483C61.4322 404.483 60.8722 366.483 60.3122 319.673C59.7522 272.863 59.4622 234.863 59.5622 234.863Z" fill="white"/>
<path d="M64.762 235.863C64.902 235.863 65.072 273.403 65.142 319.703C65.212 366.003 65.142 403.553 64.992 403.553C64.842 403.553 64.682 366.023 64.622 319.703C64.562 273.383 64.622 235.863 64.762 235.863Z" fill="white"/>
<path d="M95.7521 238.623C96.1201 238.44 96.5217 238.335 96.9321 238.313C98.0483 238.183 99.1794 238.32 100.232 238.713C100.969 238.973 101.649 239.373 102.232 239.893C102.409 240.064 102.54 240.278 102.612 240.513C102.647 240.648 102.654 240.789 102.632 240.927C102.609 241.065 102.558 241.196 102.482 241.313C102.323 241.517 102.121 241.683 101.892 241.802C101.662 241.921 101.41 241.99 101.152 242.003C100.106 242.096 99.0547 241.896 98.1153 241.427C97.176 240.957 96.3855 240.236 95.8321 239.343L95.7721 239.243H96.2221C95.7484 240.187 95.157 241.068 94.4621 241.863C94.1306 242.254 93.7229 242.574 93.2639 242.803C92.8048 243.031 92.3041 243.164 91.7921 243.193C91.2806 243.179 90.7954 242.963 90.4421 242.593C90.2776 242.412 90.1577 242.194 90.0917 241.958C90.0258 241.722 90.0156 241.474 90.0621 241.233C90.2696 240.444 90.7798 239.769 91.4821 239.353C92.4324 238.746 93.5451 238.442 94.6721 238.483C95.079 238.468 95.4836 238.55 95.8521 238.723C95.8521 238.723 95.4221 238.663 94.6721 238.723C93.5962 238.758 92.5537 239.105 91.6721 239.723C91.0701 240.096 90.6363 240.687 90.4621 241.373C90.4267 241.551 90.4346 241.735 90.4851 241.909C90.5356 242.083 90.6271 242.242 90.7521 242.373C91.0209 242.635 91.3771 242.788 91.7521 242.803C92.195 242.764 92.6256 242.636 93.0188 242.428C93.4119 242.221 93.7598 241.937 94.0421 241.593C94.6983 240.837 95.256 240 95.7021 239.103L95.9221 238.713L96.1621 239.093V239.183C96.6689 239.992 97.3859 240.648 98.2366 241.082C99.0873 241.515 100.04 241.709 100.992 241.643C101.182 241.635 101.367 241.589 101.539 241.508C101.711 241.427 101.865 241.314 101.992 241.173C102.069 241.03 102.094 240.865 102.061 240.705C102.028 240.546 101.94 240.404 101.812 240.303C101.27 239.814 100.643 239.427 99.9621 239.163C98.9606 238.755 97.8822 238.571 96.8021 238.623C96.1821 238.553 95.7621 238.663 95.7521 238.623Z" fill="#455A64"/>
<path d="M72.8621 241.683C72.4489 243.545 71.7037 245.316 70.6621 246.913C69.7742 248.599 68.5923 250.113 67.1721 251.383C67.0521 251.283 68.6521 249.383 70.1721 246.653C71.6921 243.923 72.7121 241.633 72.8621 241.683Z" fill="#455A64"/>
<path d="M115.572 244.993C113.861 244.269 112.287 243.254 110.922 241.993C109.45 240.887 108.181 239.534 107.172 237.993C107.282 237.883 108.942 239.703 111.262 241.633C113.582 243.563 115.652 244.863 115.572 244.993Z" fill="#455A64"/>
<path d="M72.822 131.163C71.0239 130.593 69.1027 130.534 67.2732 130.994C65.4436 131.453 63.7778 132.412 62.462 133.763C61.6832 134.769 60.8055 135.693 59.842 136.523C57.482 138.173 54.152 137.433 51.552 138.673C50.2562 139.368 49.2222 140.466 48.6068 141.802C47.9915 143.137 47.8283 144.637 48.142 146.073C48.508 147.498 49.2334 148.805 50.2489 149.87C51.2644 150.934 52.5359 151.72 53.942 152.153C56.7891 152.979 59.8419 152.712 62.502 151.403C65.1384 150.099 67.4485 148.219 69.262 145.903C72.582 141.903 74.832 136.673 74.262 131.473" fill="#04A732"/>
<path d="M72.232 131.403L69.142 139.273L50.802 150.693L59.742 208.693C59.742 208.693 52.212 221.283 52.362 230.563V230.633C52.3742 231.248 52.5975 231.84 52.9944 232.31C53.3913 232.78 53.9378 233.099 54.542 233.213C60.242 234.363 79.052 237.823 91.762 236.593C106.372 235.233 112.462 232.863 112.462 232.863L114.462 224.243L111.992 216.863L108.612 158.113C108.612 158.113 107.302 148.113 105.052 145.433L98.582 140.433L95.082 134.213L72.232 131.403Z" fill="#04A732"/>
<path d="M99.7021 141.313C107.082 143.753 114.252 147.133 114.432 161.643C114.612 176.153 115.732 208.953 115.732 208.953L102.642 202.953L99.7021 149.723V141.313Z" fill="#04A732"/>
<g opacity="0.3">
<path d="M54.1921 220.863C57.5585 221.73 60.9954 222.296 64.4621 222.553C67.805 222.791 71.1484 222.098 74.1221 220.553C76.1533 219.267 78.0525 217.783 79.7921 216.123C84.6421 211.933 90.1421 208.583 95.6221 205.253L104.452 199.883C105.225 199.476 105.906 198.914 106.452 198.233C106.721 197.888 106.881 197.471 106.911 197.034C106.941 196.598 106.841 196.162 106.622 195.783C106.369 195.48 106.037 195.252 105.664 195.123C105.29 194.995 104.888 194.97 104.502 195.053C103.73 195.221 102.998 195.533 102.342 195.973L92.7021 201.603C80.8921 208.493 68.7021 215.523 55.2021 217.603L54.1921 220.863Z" fill="black"/>
</g>
<path d="M66.8521 192.453C66.9244 192.243 67.0609 192.061 67.2421 191.933L69.0521 190.633C69.1997 190.534 69.3182 190.398 69.3955 190.238C69.4729 190.078 69.5062 189.9 69.4921 189.723L69.0021 181.273V181.193C69.0021 180.253 69.4221 161.713 67.3221 155.643C65.3221 149.763 60.1921 146.553 50.9621 149.873C50.1719 150.629 49.4335 151.438 48.7521 152.293V152.293C46.97 155.202 45.9741 158.524 45.8621 161.933L45.2021 181.863C45.2021 181.863 43.3721 200.243 43.1121 202.733C42.4521 208.933 44.7021 218.973 49.9721 219.733C52.3521 220.063 67.7621 216.863 70.8121 216.023C71.733 215.39 72.4738 214.528 72.9621 213.523L74.8921 194.523C74.9141 194.298 74.8898 194.071 74.8206 193.855C74.7515 193.639 74.639 193.44 74.4901 193.27C74.3412 193.099 74.159 192.961 73.9547 192.864C73.7504 192.766 73.5283 192.712 73.3021 192.703L66.8521 192.453Z" fill="#04A732"/>
<path d="M69.5521 165.613C69.6206 165.986 69.6541 166.364 69.6521 166.743C69.6521 167.563 69.7221 168.603 69.7721 169.833C69.8521 172.443 69.9321 176.053 69.9921 180.043C69.9921 182.043 69.9921 183.923 70.0521 185.663C70.2056 187.23 69.8998 188.807 69.1721 190.203C68.5988 191.09 67.8289 191.832 66.9221 192.373C66.6187 192.587 66.2803 192.746 65.9221 192.843C65.9221 192.843 66.2721 192.643 66.8621 192.223C67.7009 191.65 68.4068 190.903 68.9321 190.033C69.5836 188.678 69.84 187.167 69.6721 185.673C69.6721 183.933 69.6021 182.033 69.5721 180.053C69.5121 176.053 69.4821 172.453 69.4921 169.843C69.4921 168.603 69.4921 167.573 69.4921 166.743C69.4657 166.365 69.4859 165.986 69.5521 165.613V165.613Z" fill="#263238"/>
<path d="M59.1921 201.473C59.1778 200.924 59.2694 200.377 59.4621 199.863C59.8408 198.599 60.4437 197.414 61.2421 196.363C62.0524 195.299 63.0737 194.414 64.2421 193.763C64.6976 193.452 65.217 193.247 65.7621 193.163C64.198 194.068 62.8065 195.243 61.6521 196.633C60.612 198.125 59.7841 199.754 59.1921 201.473V201.473Z" fill="#263238"/>
<path d="M55.6021 197.043C55.8593 196.517 56.2198 196.047 56.662 195.663C57.6712 194.668 58.8676 193.883 60.1821 193.353C61.494 192.826 62.8984 192.568 64.312 192.593C64.8979 192.564 65.4834 192.656 66.0321 192.863C65.4638 192.917 64.8925 192.934 64.3221 192.913C61.5761 193.052 58.9563 194.109 56.882 195.913C56.4804 196.317 56.0528 196.695 55.6021 197.043V197.043Z" fill="#263238"/>
<g opacity="0.3">
<path d="M65.7022 192.613C63.4859 191.891 61.1189 191.763 58.8376 192.242C56.5564 192.721 54.4408 193.79 52.7022 195.343C52.2622 195.743 51.8222 196.343 51.9922 196.853C52.0687 197.06 52.2043 197.239 52.3822 197.369C52.56 197.499 52.7722 197.573 52.9922 197.583C53.4244 197.606 53.856 197.527 54.2522 197.353C56.2017 196.49 58.0866 195.487 59.8922 194.353C61.7154 193.199 63.8601 192.66 66.0122 192.813" fill="black"/>
</g>
<path d="M110.632 187.733C112.872 197.463 115.972 207.043 116.922 216.983C117.352 221.453 117.252 226.273 114.772 229.983C113.832 231.462 112.499 232.649 110.922 233.413" fill="#04A732"/>
<path d="M108.752 157.723C108.797 157.876 108.818 158.034 108.812 158.193C108.812 158.563 108.862 159.013 108.892 159.543C108.892 160.803 109.022 162.483 109.102 164.543C109.282 168.743 109.532 174.543 109.982 180.923C110.432 187.303 111.082 193.083 111.642 197.233C111.922 199.313 112.162 201.003 112.342 202.163L112.532 203.503C112.559 203.659 112.559 203.818 112.532 203.973C112.466 203.827 112.422 203.672 112.402 203.513C112.322 203.153 112.232 202.723 112.112 202.193C111.872 201.043 111.582 199.363 111.252 197.293C110.592 193.133 109.902 187.363 109.432 180.963C108.962 174.563 108.792 168.753 108.712 164.553C108.712 162.453 108.652 160.753 108.662 159.553C108.662 159.013 108.662 158.553 108.662 158.193C108.668 158.033 108.698 157.874 108.752 157.723V157.723Z" fill="#263238"/>
<path d="M67.6521 137.373C67.6521 137.373 67.4221 137.633 66.9521 138.033C66.4821 138.433 65.7821 139.033 64.9521 139.653C63.1921 140.983 60.6921 142.723 57.9521 144.653C55.2121 146.583 52.7921 148.423 51.1121 149.833C49.4321 151.243 48.4421 152.173 48.3821 152.113C48.5503 151.84 48.7556 151.591 48.9921 151.373C49.4121 150.923 50.0521 150.293 50.8721 149.553C53.0244 147.644 55.2884 145.864 57.6521 144.223C60.4021 142.293 62.9221 140.603 64.7321 139.353C65.665 138.635 66.6401 137.974 67.6521 137.373V137.373Z" fill="#263238"/>
<path d="M74.6721 194.023L79.1721 192.133V211.513L71.3521 214.453L74.6721 194.023Z" fill="#04A732"/>
<path d="M63.6021 194.103C64.0051 193.977 64.421 193.896 64.842 193.863L68.2221 193.423L70.5721 193.143L71.8721 192.993C72.3483 192.92 72.8306 192.893 73.312 192.913C73.5925 192.928 73.8662 193.005 74.1135 193.138C74.3607 193.271 74.5754 193.457 74.7421 193.683C75.0298 194.172 75.1558 194.739 75.1021 195.303C75.0021 196.393 74.7721 197.413 74.6121 198.503C73.9121 202.843 73.372 206.793 72.882 209.643C72.642 211.063 72.4221 212.213 72.2621 213.003C72.2099 213.421 72.1058 213.831 71.952 214.223C71.9501 213.804 71.9869 213.386 72.062 212.973C72.182 212.073 72.332 210.973 72.522 209.593C72.912 206.733 73.3921 202.773 74.1021 198.423C74.2521 197.343 74.502 196.253 74.592 195.283C74.646 194.827 74.5551 194.365 74.3321 193.963C74.2063 193.796 74.0453 193.658 73.8604 193.559C73.6755 193.461 73.4713 193.404 73.2621 193.393C72.3758 193.397 71.4907 193.457 70.6121 193.573L68.2621 193.793L64.8621 194.073C64.4439 194.123 64.0221 194.133 63.6021 194.103V194.103Z" fill="#263238"/>
<path d="M78.9021 196.683C78.2126 197.309 77.4122 197.801 76.5421 198.133C75.7455 198.626 74.8636 198.965 73.9421 199.133C74.6363 198.508 75.4397 198.017 76.3121 197.683C77.1063 197.193 77.9845 196.854 78.9021 196.683V196.683Z" fill="#263238"/>
<path d="M79.172 205.013C78.1944 205.601 77.159 206.087 76.082 206.463C75.0641 207.015 73.945 207.356 72.792 207.463C73.7695 206.875 74.805 206.389 75.882 206.013C76.9021 205.467 78.0202 205.127 79.172 205.013V205.013Z" fill="#263238"/>
<path d="M72.2822 214.103C72.8686 213.77 73.4846 213.492 74.1222 213.273C75.3122 212.783 77.0322 212.103 79.1222 211.273L78.9822 211.483C78.9822 209.013 78.9822 206.133 78.9822 203.033C78.9822 198.783 78.9822 194.923 79.0522 192.103L79.3122 192.273L75.9822 193.583C75.5818 193.756 75.1668 193.893 74.7422 193.993C75.1034 193.745 75.4928 193.54 75.9022 193.383L79.1722 191.933L79.4222 191.813V192.103C79.4222 194.923 79.4922 198.783 79.4922 203.033C79.4922 206.133 79.4922 209.033 79.4922 211.483V211.633L79.3522 211.693C77.2622 212.443 75.5322 213.063 74.3522 213.483C73.6809 213.748 72.9884 213.955 72.2822 214.103V214.103Z" fill="#263238"/>
<path d="M91.2622 142.863C91.0479 143.016 90.8072 143.128 90.5522 143.193C89.874 143.431 89.1684 143.583 88.4522 143.643C86.0823 143.82 83.7066 143.386 81.5522 142.383C79.4271 141.38 77.4406 140.106 75.6422 138.593C74.8571 138.023 74.1272 137.38 73.4622 136.673C74.3005 137.155 75.0967 137.707 75.8422 138.323C77.6774 139.721 79.651 140.927 81.7322 141.923C83.8193 142.891 86.1027 143.36 88.4022 143.293C89.3625 143.201 90.3172 143.057 91.2622 142.863V142.863Z" fill="#263238"/>
<path d="M93.462 140.663C93.562 140.763 93.392 141.123 93.082 141.483C92.772 141.843 92.422 142.053 92.312 141.953C92.202 141.853 92.372 141.493 92.692 141.133C93.012 140.773 93.312 140.573 93.462 140.663Z" fill="#263238"/>
<path d="M89.632 211.333C89.632 211.333 89.632 211.613 89.512 212.103C89.3467 212.788 89.1225 213.457 88.842 214.103C87.9171 216.265 86.5705 218.22 84.8809 219.854C83.1913 221.489 81.1927 222.77 79.002 223.623C78.3523 223.876 77.6835 224.077 77.002 224.223C76.502 224.313 76.232 224.353 76.222 224.313C76.212 224.273 77.282 223.983 78.892 223.313C83.1004 221.446 86.4969 218.127 88.462 213.963C89.262 212.373 89.542 211.313 89.632 211.333Z" fill="#263238"/>
<path d="M107.792 207.463C107.111 207.773 106.396 208.005 105.662 208.153C104.322 208.503 102.462 208.933 100.392 209.323C98.322 209.713 96.392 209.993 95.052 210.153C94.3139 210.292 93.5612 210.335 92.812 210.283C93.52 210.044 94.2504 209.876 94.992 209.783L100.292 208.783L105.582 207.783C106.304 207.59 107.045 207.483 107.792 207.463V207.463Z" fill="#263238"/>
<path d="M128.732 169.573L122.672 172.383L119.832 175.263C119.832 175.263 126.442 174.483 126.622 175.593C126.802 176.703 126.822 177.963 126.382 178.313C125.968 178.732 125.605 179.198 125.302 179.703C125.302 179.703 126.892 181.473 126.302 182.383C125.908 182.958 125.573 183.571 125.302 184.213L124.362 184.133C124.362 184.133 124.462 187.573 123.742 188.043C123.302 188.418 122.757 188.648 122.182 188.703C121.188 188.848 120.186 188.942 119.182 188.983L118.092 188.883C118.092 188.883 112.422 196.023 110.392 195.883C108.362 195.743 104.622 195.643 104.622 195.643C95.6737 204.293 84.757 210.639 72.812 214.133L74.262 197.593L74.462 194.593L105.702 183.353L116.812 170.963L122.012 168.413L129.582 166.753C129.745 167.254 129.751 167.792 129.599 168.296C129.447 168.8 129.145 169.246 128.732 169.573V169.573Z" fill="#FFBE9D"/>
<path d="M104.612 195.613H105.752L109.022 195.693H110.142C110.533 195.734 110.926 195.646 111.262 195.443C112.051 194.969 112.779 194.402 113.432 193.753C115.045 192.186 116.555 190.516 117.952 188.753L118.012 188.683H118.102L119.182 188.773C119.842 188.773 120.522 188.693 121.182 188.613C121.518 188.585 121.852 188.538 122.182 188.473C122.517 188.431 122.84 188.322 123.132 188.153L123.592 187.843C123.696 187.74 123.771 187.613 123.812 187.473C123.924 187.129 123.997 186.773 124.032 186.413C124.104 185.645 124.131 184.874 124.112 184.103V183.863H124.352L125.292 183.943L125.082 184.073C125.234 183.686 125.411 183.308 125.612 182.943C125.782 182.573 126.142 182.183 126.162 181.943C126.155 181.552 126.037 181.17 125.822 180.843C125.62 180.484 125.379 180.149 125.102 179.843L124.992 179.713L125.072 179.573C125.321 179.176 125.595 178.795 125.892 178.433C125.982 178.343 126.062 178.253 126.162 178.163C126.232 178.111 126.287 178.042 126.322 177.963C126.398 177.772 126.442 177.569 126.452 177.363C126.497 176.908 126.497 176.449 126.452 175.993L126.402 175.643C126.402 175.583 126.402 175.573 126.302 175.513C126.114 175.417 125.911 175.353 125.702 175.323C123.752 175.163 121.79 175.217 119.852 175.483L119.222 175.543L119.662 175.093L119.772 174.993L122.512 172.213L128.572 169.413C128.958 169.109 129.239 168.693 129.379 168.222C129.519 167.751 129.509 167.248 129.352 166.783L129.602 166.923L122.022 168.573L116.812 171.103L116.862 171.053L108.702 180.053L106.442 182.503L105.842 183.133L105.622 183.343C105.622 183.343 105.672 183.253 105.802 183.103L106.362 182.433L108.552 179.923C110.482 177.733 113.232 174.623 116.602 170.833L121.792 168.273H121.842L129.402 166.593H129.602L129.652 166.773C129.85 167.323 129.87 167.922 129.708 168.484C129.547 169.046 129.212 169.542 128.752 169.903L122.702 172.703H122.762L120.022 175.483L119.922 175.583L119.732 175.203C120.732 175.083 121.732 175.003 122.732 174.953C123.733 174.892 124.737 174.922 125.732 175.043C125.999 175.081 126.257 175.17 126.492 175.303C126.572 175.35 126.64 175.413 126.692 175.489C126.744 175.565 126.778 175.652 126.792 175.743L126.842 176.103C126.892 176.592 126.892 177.084 126.842 177.573C126.823 177.831 126.762 178.084 126.662 178.323C126.599 178.459 126.507 178.578 126.392 178.673C126.314 178.741 126.24 178.815 126.172 178.893C125.912 179.199 125.675 179.523 125.462 179.863V179.603C125.76 179.945 126.021 180.317 126.242 180.713C126.493 181.119 126.625 181.586 126.622 182.063C126.581 182.307 126.481 182.537 126.332 182.733C126.222 182.903 126.122 183.073 126.022 183.253C125.831 183.604 125.657 183.965 125.502 184.333L125.442 184.483H125.292L124.292 184.393L124.522 184.183C124.539 184.971 124.506 185.759 124.422 186.543C124.382 186.937 124.301 187.326 124.182 187.703C124.111 187.922 123.979 188.116 123.802 188.263L123.342 188.573C123.005 188.772 122.63 188.898 122.242 188.943C121.888 189.009 121.531 189.056 121.172 189.083C120.472 189.153 119.782 189.193 119.122 189.223L118.042 189.123L118.192 189.063C116.773 190.832 115.236 192.502 113.592 194.063C112.917 194.723 112.161 195.294 111.342 195.763C111.144 195.86 110.936 195.938 110.722 195.993C110.513 196.023 110.301 196.023 110.092 195.993L108.972 195.933L105.722 195.753L104.872 195.693L104.612 195.613Z" fill="#EB996E"/>
<path d="M125.342 179.563C125.342 179.613 124.962 179.373 124.342 179.163C123.537 178.901 122.683 178.819 121.842 178.923C120.994 179.041 120.158 179.232 119.342 179.493C118.692 179.693 118.342 179.793 118.262 179.733C118.182 179.673 118.602 179.463 119.262 179.193C120.08 178.832 120.946 178.59 121.832 178.473C122.728 178.363 123.637 178.498 124.462 178.863C125.102 179.173 125.382 179.523 125.342 179.563Z" fill="#EB996E"/>
<path d="M124.392 184.303C124.379 184.148 124.332 183.998 124.254 183.863C124.176 183.728 124.07 183.612 123.942 183.523C123.196 183.259 122.395 183.183 121.612 183.303C120.466 183.482 119.346 183.794 118.272 184.233C119.159 183.381 120.333 182.892 121.562 182.863C122.034 182.807 122.511 182.807 122.982 182.863C123.391 182.887 123.785 183.022 124.122 183.253C124.238 183.342 124.333 183.455 124.4 183.585C124.468 183.715 124.506 183.857 124.512 184.003C124.462 184.223 124.462 184.313 124.392 184.303Z" fill="#EB996E"/>
<path d="M121.352 186.773C121.352 186.833 121.082 186.953 120.602 187.003C120.012 187.023 119.426 187.104 118.852 187.243C118.599 187.306 118.371 187.447 118.202 187.646C118.034 187.845 117.932 188.093 117.912 188.353C117.912 188.773 118.152 188.963 118.112 189.023C118.072 189.083 117.702 188.943 117.592 188.393C117.539 188.071 117.615 187.741 117.802 187.473C118.027 187.163 118.341 186.929 118.702 186.803C119.319 186.642 119.96 186.601 120.592 186.683C121.052 186.713 121.332 186.713 121.352 186.773Z" fill="#EB996E"/>
<path d="M71.7322 100.863L72.8022 132.313L83.9422 139.623C84.9654 140.293 86.1405 140.696 87.3598 140.795C88.5791 140.893 89.8035 140.684 90.921 140.186C92.0385 139.689 93.0132 138.919 93.756 137.947C94.4987 136.975 94.9856 135.832 95.1722 134.623V134.623V130.863C95.1722 130.863 104.112 129.943 104.682 121.083C104.962 116.773 104.812 107.833 104.582 99.7832C104.47 95.5144 102.701 91.4569 99.6492 88.4703C96.5972 85.4836 92.5024 83.8025 88.2322 83.7832V83.7832C86.0133 83.7734 83.8154 84.2129 81.7709 85.0752C79.7263 85.9375 77.8776 87.2048 76.3359 88.8007C74.7942 90.3966 73.5915 92.288 72.8003 94.3611C72.0091 96.4342 71.6458 98.6459 71.7322 100.863V100.863Z" fill="#FFBE9D"/>
<path d="M95.192 130.863C91.0936 130.724 87.129 129.37 83.802 126.973C83.802 126.973 86.202 133.493 95.092 133.163L95.192 130.863Z" fill="#EB996E"/>
<path d="M102.462 106.133C102.447 106.463 102.303 106.774 102.062 107C101.822 107.226 101.502 107.349 101.172 107.343C101.01 107.347 100.849 107.319 100.698 107.26C100.548 107.201 100.41 107.113 100.294 107C100.177 106.888 100.084 106.753 100.021 106.604C99.9569 106.455 99.9234 106.295 99.9221 106.133C99.9377 105.803 100.081 105.493 100.322 105.267C100.563 105.041 100.882 104.918 101.212 104.923C101.374 104.919 101.535 104.947 101.686 105.006C101.837 105.065 101.974 105.154 102.091 105.266C102.207 105.379 102.3 105.514 102.364 105.662C102.427 105.811 102.461 105.971 102.462 106.133Z" fill="#263238"/>
<path d="M102.462 104.313C102.302 104.463 101.372 103.703 100.012 103.633C98.6522 103.563 97.6122 104.203 97.4722 104.023C97.3322 103.843 97.5822 103.653 98.0322 103.363C98.6322 102.995 99.3294 102.818 100.032 102.853C100.743 102.878 101.425 103.138 101.972 103.593C102.462 103.933 102.532 104.243 102.462 104.313Z" fill="#263238"/>
<path d="M89.082 106.023C89.069 106.353 88.9281 106.665 88.6892 106.893C88.4503 107.12 88.1321 107.246 87.802 107.243C87.6393 107.247 87.4774 107.219 87.3259 107.159C87.1744 107.1 87.0364 107.01 86.9199 106.897C86.8034 106.783 86.7108 106.647 86.6477 106.497C86.5845 106.347 86.552 106.186 86.552 106.023C86.5676 105.693 86.7109 105.383 86.9518 105.157C87.1926 104.931 87.5119 104.808 87.842 104.813C88.0038 104.808 88.165 104.835 88.3159 104.894C88.4668 104.952 88.6043 105.041 88.7201 105.154C88.836 105.267 88.9277 105.402 88.9899 105.551C89.0521 105.701 89.0834 105.861 89.082 106.023V106.023Z" fill="#263238"/>
<path d="M89.0421 103.863C88.8721 104.023 87.9521 103.263 86.5921 103.193C85.2321 103.123 84.1921 103.753 84.0521 103.583C83.9121 103.413 84.1621 103.213 84.6121 102.913C85.2121 102.545 85.9092 102.368 86.6121 102.403C87.3209 102.437 88.0004 102.697 88.5521 103.143C88.9921 103.483 89.1221 103.793 89.0421 103.863Z" fill="#263238"/>
<path d="M93.4621 114.233C94.1904 114.044 94.9396 113.946 95.6921 113.943C96.0421 113.943 96.3821 113.873 96.4521 113.643C96.4982 113.283 96.4355 112.917 96.2721 112.593L95.3821 109.893C94.1521 106.043 93.2721 102.893 93.3821 102.843C94.3998 105.066 95.2391 107.367 95.8921 109.723L96.7421 112.433C96.936 112.867 96.9749 113.354 96.8521 113.813C96.7943 113.933 96.7104 114.038 96.6066 114.121C96.5027 114.204 96.3816 114.263 96.2521 114.293C96.053 114.321 95.8511 114.321 95.6521 114.293C94.9222 114.356 94.1874 114.336 93.4621 114.233Z" fill="#263238"/>
<path d="M89.6721 98.5432C89.5221 98.9032 88.1721 98.6532 86.5621 98.7632C84.9521 98.8732 83.6321 99.2432 83.4421 98.9032C83.3521 98.7332 83.5921 98.4032 84.1321 98.0632C84.8514 97.6557 85.6563 97.4228 86.4821 97.3832C87.3035 97.3233 88.1271 97.464 88.8821 97.7932C89.4621 98.0632 89.7421 98.3632 89.6721 98.5432Z" fill="#263238"/>
<path d="M102.162 100.333C101.902 100.633 100.982 100.263 99.8522 100.193C98.7222 100.123 97.7522 100.293 97.5522 99.9532C97.4622 99.7932 97.6322 99.4932 98.0622 99.2232C98.6413 98.902 99.3024 98.7591 99.9625 98.8125C100.623 98.8659 101.252 99.1131 101.772 99.5232C102.152 99.8632 102.272 100.193 102.162 100.333Z" fill="#263238"/>
<path d="M74.7421 108.333C74.5921 108.263 68.7421 106.213 68.6121 112.283C68.4821 118.353 74.6121 117.283 74.6121 117.053C74.6121 116.823 74.7421 108.333 74.7421 108.333Z" fill="#FFBE9D"/>
<path d="M72.822 114.723C72.822 114.723 72.712 114.793 72.532 114.873C72.2776 114.97 71.9964 114.97 71.742 114.873C71.3532 114.617 71.0404 114.261 70.8364 113.842C70.6323 113.423 70.5444 112.957 70.582 112.493C70.5756 111.972 70.6849 111.457 70.902 110.983C70.9641 110.795 71.0713 110.624 71.2142 110.487C71.3571 110.349 71.5314 110.248 71.722 110.193C71.8427 110.164 71.9699 110.178 72.0814 110.233C72.1929 110.287 72.2816 110.38 72.332 110.493C72.412 110.663 72.332 110.783 72.402 110.793C72.472 110.803 72.532 110.693 72.492 110.443C72.4623 110.293 72.3809 110.159 72.262 110.063C72.0983 109.933 71.8901 109.872 71.682 109.893C71.431 109.938 71.1955 110.046 70.9978 110.207C70.8 110.368 70.6466 110.576 70.552 110.813C70.2854 111.336 70.1482 111.916 70.152 112.503C70.1136 113.042 70.2344 113.581 70.4992 114.052C70.7641 114.523 71.1615 114.906 71.642 115.153C71.808 115.21 71.985 115.227 72.1587 115.202C72.3323 115.178 72.4979 115.113 72.642 115.013C72.802 114.863 72.842 114.733 72.822 114.723Z" fill="#EB996E"/>
<path d="M94.5822 117.583C94.2935 117.329 93.9375 117.163 93.5569 117.105C93.1763 117.048 92.7872 117.102 92.4364 117.26C92.0856 117.419 91.7879 117.675 91.5791 117.998C91.3703 118.322 91.2593 118.698 91.2593 119.083C91.2593 119.468 91.3703 119.845 91.5791 120.168C91.7879 120.491 92.0856 120.748 92.4364 120.906C92.7872 121.064 93.1763 121.118 93.5569 121.061C93.9375 121.004 94.2935 120.838 94.5822 120.583" fill="#EB996E"/>
<path d="M93.9921 120.773C93.9921 120.773 93.6521 121.173 92.8721 121.103C92.4163 121.05 91.9926 120.842 91.6721 120.513C91.4806 120.3 91.3372 120.047 91.2517 119.774C91.1663 119.5 91.1407 119.211 91.1767 118.926C91.2128 118.642 91.3096 118.368 91.4606 118.125C91.6117 117.881 91.8134 117.672 92.0521 117.513C92.4448 117.276 92.9074 117.18 93.3621 117.243C94.1321 117.363 94.3621 117.823 94.3621 117.843C94.3621 117.863 93.9721 117.623 93.3621 117.613C93.0053 117.604 92.6548 117.709 92.3621 117.913C92.1923 118.041 92.0498 118.201 91.943 118.385C91.8361 118.568 91.7672 118.771 91.7402 118.982C91.7131 119.193 91.7286 119.407 91.7856 119.611C91.8426 119.816 91.94 120.007 92.0721 120.173C92.3092 120.444 92.6232 120.636 92.9721 120.723C93.5521 120.863 93.9621 120.693 93.9921 120.773Z" fill="#263238"/>
<path d="M100.012 90.0232C101.012 89.4732 98.0121 86.2432 95.5621 85.1232C91.8521 83.4432 86.1821 82.4032 82.7621 83.3732C78.6421 84.5332 74.7621 86.1432 72.6921 89.8932C70.6221 93.6432 70.2821 98.5932 70.4021 102.893C70.4021 104.203 70.8021 107.753 71.4821 108.113C72.6221 108.703 73.8021 108.743 73.7321 110.633C73.7087 110.973 73.7533 111.315 73.8632 111.638C73.973 111.96 74.146 112.258 74.3721 112.513C75.5021 113.713 76.8821 112.583 77.5221 111.453C78.8721 109.043 79.0321 106.153 79.1521 103.383C79.3391 101.418 79.2075 99.4361 78.7621 97.5132C78.4621 96.5132 77.9721 95.5132 77.7621 94.5132C77.6087 93.9985 77.5687 93.4567 77.6446 92.925C77.7206 92.3933 77.9108 91.8844 78.2021 91.4332C78.3499 91.2457 78.5175 91.0747 78.7021 90.9232C79.564 90.1726 80.6102 89.665 81.7331 89.4523C82.8561 89.2397 84.0154 89.3297 85.0921 89.7132C88.5621 90.9432 94.4921 92.7832 96.0921 91.6032C97.2009 90.8736 98.1445 89.9198 98.8621 88.8032L100.012 90.0232Z" fill="#455A64"/>
<path d="M95.5621 85.1232C91.8521 83.4432 86.1821 82.4032 82.7621 83.3732C78.6421 84.5332 74.7621 86.1432 72.6921 89.8932L78.6921 90.8932C79.5541 90.1426 80.6002 89.635 81.7232 89.4223C82.8461 89.2097 84.0055 89.2997 85.0821 89.6832C88.5521 90.9132 94.4821 92.7532 96.0821 91.5732C97.1909 90.8436 98.1345 89.8898 98.8521 88.7732L100.082 90.0632C101.002 89.4732 98.0121 86.2432 95.5621 85.1232Z" fill="#263238"/>
<path d="M77.812 92.4432C76.815 92.5859 75.8013 92.5622 74.812 92.3732C73.7864 92.3513 72.7719 92.1552 71.812 91.7932C72.8079 91.6383 73.8231 91.6586 74.812 91.8532C75.8392 91.8695 76.8552 92.0693 77.812 92.4432Z" fill="#263238"/>
<path d="M91.152 187.333C90.9509 186.509 90.9068 185.654 91.022 184.813C91.3202 182.521 92.1339 180.326 93.402 178.393C94.862 175.873 97.212 173.293 99.022 169.963C99.4803 169.116 99.8618 168.229 100.162 167.313C100.305 166.84 100.406 166.355 100.462 165.863C100.497 165.667 100.462 165.465 100.362 165.293C100.282 165.173 100.142 165.133 99.902 165.163C97.8233 165.556 95.8339 166.325 94.032 167.433C92.132 168.523 90.352 169.743 88.502 170.733C88.042 170.993 87.582 171.223 87.102 171.443C86.5928 171.717 85.9961 171.778 85.442 171.613C85.1713 171.491 84.9435 171.29 84.7883 171.037C84.6332 170.784 84.5578 170.49 84.572 170.193C84.5867 169.674 84.6986 169.161 84.902 168.683C86.3831 165.627 88.022 162.65 89.812 159.763C91.332 157.303 92.662 155.373 93.612 154.063C94.082 153.413 94.462 152.903 94.722 152.573C94.8446 152.393 94.9854 152.225 95.142 152.073C95.0539 152.272 94.9431 152.46 94.812 152.633L93.812 154.183C92.922 155.523 91.642 157.473 90.162 159.953C88.682 162.433 87.002 165.453 85.382 168.863C85.2072 169.282 85.1123 169.73 85.102 170.183C85.0824 170.388 85.1267 170.594 85.2287 170.773C85.3307 170.952 85.4856 171.096 85.672 171.183C86.442 171.453 87.412 170.753 88.302 170.323C90.112 169.323 91.892 168.113 93.822 167.013C95.6813 165.87 97.7357 165.08 99.882 164.683C100.055 164.652 100.233 164.668 100.398 164.727C100.563 164.787 100.709 164.889 100.822 165.023C100.986 165.296 101.053 165.617 101.012 165.933C100.928 166.45 100.801 166.958 100.632 167.453C100.321 168.398 99.9227 169.312 99.442 170.183C97.562 173.573 95.192 176.113 93.712 178.573C92.446 180.455 91.597 182.586 91.222 184.823C91.1299 185.657 91.1065 186.496 91.152 187.333V187.333Z" fill="white"/>
<path d="M57.5327 95.8484L49.7827 82.7684C53.1572 77.1252 54.3386 70.4382 53.1019 63.9805C51.8653 57.5227 48.297 51.7452 43.0764 47.7481C37.8558 43.7509 31.3475 41.8132 24.7908 42.3039C18.234 42.7945 12.0867 45.6793 7.51915 50.409C2.95164 55.1387 0.282972 61.3829 0.0212485 67.9528C-0.240475 74.5227 1.92302 80.9594 6.09983 86.0374C10.2766 91.1154 16.175 94.4801 22.672 95.4908C29.1689 96.5015 35.8107 95.0876 41.3327 91.5184V91.6084L57.5327 95.8484Z" fill="white"/>
<path d="M57.5328 95.8484L41.3728 91.8484H41.4928C37.3182 94.4956 32.4952 95.9418 27.5528 96.0284C24.6253 96.0423 21.7124 95.6142 18.9128 94.7584C15.8602 93.7914 13.0076 92.2804 10.4928 90.2984C4.84649 85.8845 1.18179 79.411 0.302765 72.2984C-0.282117 67.3713 0.49132 62.3781 2.53941 57.8589C4.58751 53.3397 7.83229 49.4665 11.9228 46.6584C12.7928 46.1184 13.6528 45.5584 14.5528 45.0784L15.9328 44.4184L16.6128 44.0884L17.3228 43.8284C21.0221 42.4035 24.9869 41.7996 28.9428 42.0584C32.5871 42.2918 36.1455 43.2663 39.4004 44.9221C42.6553 46.5779 45.5382 48.8802 47.8728 51.6884C49.9665 54.1968 51.5832 57.0675 52.6428 60.1584C53.6051 62.966 54.1082 65.9105 54.1328 68.8784C54.1629 73.8132 52.8232 78.6596 50.2628 82.8784V82.7284L57.5328 95.8284L50.0128 82.8284V82.7584V82.6884C52.4778 78.5181 53.7539 73.7524 53.7028 68.9084C53.6574 65.9831 53.1477 63.0837 52.1928 60.3184C50.4876 55.3992 47.3675 51.0932 43.2241 47.9407C39.0807 44.7883 34.0985 42.9297 28.9028 42.5984C25.0273 42.3475 21.1438 42.9447 17.5228 44.3484L16.8228 44.5984L16.1528 44.9284L14.8028 45.5684C13.9228 46.0384 13.0828 46.5684 12.2228 47.1184C10.5519 48.2809 9.01282 49.6222 7.63276 51.1184C5.02007 53.9315 3.0555 57.283 1.87723 60.937C0.69896 64.591 0.33562 68.4588 0.812765 72.2684C1.43696 77.3049 3.48312 82.0594 6.71168 85.9751C9.94023 89.8908 14.2175 92.8056 19.0428 94.3784C21.7974 95.2222 24.6618 95.6535 27.5428 95.6584C32.4186 95.6102 37.188 94.2268 41.3328 91.6584H41.3928H41.4528L57.5328 95.8484Z" fill="#263238"/>
<path d="M24.9027 57.0484L25.7527 70.5184C25.7977 71.0439 26.0308 71.5356 26.4092 71.903C26.7877 72.2705 27.2861 72.489 27.8127 72.5184V72.5184C28.3735 72.5523 28.9257 72.3685 29.3542 72.0052C29.7828 71.6419 30.0545 71.1271 30.1127 70.5684L31.6127 57.0084C31.6398 56.7667 31.615 56.522 31.54 56.2907C31.4649 56.0593 31.3415 55.8466 31.1777 55.6668C31.014 55.487 30.8138 55.3442 30.5905 55.2479C30.3672 55.1516 30.1259 55.104 29.8827 55.1084H26.5927C26.3501 55.1122 26.111 55.167 25.891 55.2692C25.6709 55.3715 25.4748 55.5188 25.3154 55.7018C25.1561 55.8848 25.0369 56.0992 24.9658 56.3312C24.8947 56.5632 24.8732 56.8075 24.9027 57.0484Z" fill="#04A732"/>
<path d="M31.3828 80.1784C31.1772 80.7959 30.7931 81.3385 30.2791 81.7377C29.7651 82.1368 29.1442 82.3746 28.495 82.4208C27.8459 82.4671 27.1976 82.3198 26.6322 81.9975C26.0667 81.6753 25.6096 81.1926 25.3185 80.6105C25.0275 80.0284 24.9156 79.373 24.9971 78.7273C25.0785 78.0817 25.3497 77.4746 25.7762 76.9831C26.2027 76.4915 26.7654 76.1375 27.3931 75.9657C28.0209 75.794 28.6854 75.8123 29.3028 76.0184C30.13 76.2945 30.8138 76.8877 31.2039 77.6678C31.5939 78.4479 31.6582 79.3509 31.3828 80.1784V80.1784Z" fill="#04A732"/>
<path d="M220.89 462.64C327.972 462.64 414.78 457.572 414.78 451.32C414.78 445.068 327.972 440 220.89 440C113.808 440 27 445.068 27 451.32C27 457.572 113.808 462.64 220.89 462.64Z" fill="#F5F5F5"/>
<path d="M371 7H137V167H371V7Z" fill="white"/>
<path d="M372.57 171.36V170.36C373.788 170.357 374.956 169.872 375.816 169.009C376.677 168.147 377.16 166.978 377.16 165.76H378.16C378.16 167.243 377.571 168.666 376.523 169.716C375.475 170.766 374.053 171.357 372.57 171.36V171.36ZM190.83 171.36H169.38V170.36H190.83V171.36ZM378.16 18.43H377.16V12.93H378.16V18.43ZM378.16 9.04H377.16V5.6C377.16 4.38173 376.677 3.21322 375.816 2.35084C374.956 1.48846 373.788 1.00265 372.57 1H357.66V0H372.57C374.053 0.00264907 375.475 0.593813 376.523 1.64373C377.571 2.69365 378.16 4.11652 378.16 5.6V9.04Z" fill="#F5F5F5"/>
<path d="M369.279 169H136.721C136.264 168.997 135.826 168.774 135.503 168.379C135.181 167.984 135 167.449 135 166.892V6.10818C135 5.55079 135.181 5.01608 135.503 4.62101C135.826 4.22594 136.264 4.00265 136.721 4H369.279C369.736 4.00265 370.174 4.22594 370.497 4.62101C370.819 5.01608 371 5.55079 371 6.10818V166.892C371 167.449 370.819 167.984 370.497 168.379C370.174 168.774 369.736 168.997 369.279 169V169ZM138.45 164.794H367.551V8.21635H138.45V164.794Z" fill="#F5F5F5"/>
<path d="M306.041 56.2572C301.784 46.7708 293.279 40.44 283.078 35.4C260.91 24.48 245.262 23.08 230.266 33.16C215.27 43.24 202.23 62.56 192.776 66.76C183.322 70.96 175.824 76.28 176.476 92.24C177.128 108.2 190.494 105.4 192.124 118.28C193.754 131.16 204.186 141.52 221.464 144.32C238.742 147.12 244.284 136.48 259.606 134.24C274.928 132 277.21 139.28 297.096 137.04C316.982 134.8 323.176 105.96 319.264 90C317.21 81.7354 314.197 73.6684 310.27 65.92C308.689 62.812 307.489 59.48 306.041 56.2572Z" fill="#1FFA1F" fill-opacity="0.5"/>
<path opacity="0.7" d="M306.041 56.2572C301.784 46.7708 293.279 40.44 283.078 35.4C260.91 24.48 245.262 23.08 230.266 33.16C215.27 43.24 202.23 62.56 192.776 66.76C183.322 70.96 175.824 76.28 176.476 92.24C177.128 108.2 190.494 105.4 192.124 118.28C193.754 131.16 204.186 141.52 221.464 144.32C238.742 147.12 244.284 136.48 259.606 134.24C274.928 132 277.21 139.28 297.096 137.04C316.982 134.8 323.176 105.96 319.264 90C317.21 81.7354 314.197 73.6684 310.27 65.92C308.689 62.812 307.489 59.48 306.041 56.2572Z" fill="white"/>
<path d="M180.248 144.096H324.786" stroke="#151819" stroke-opacity="0.75" stroke-miterlimit="10"/>
<path d="M294.195 47.594L292.992 49.6604L295.244 49.5316L294.195 47.594Z" fill="#1FFA1F"/>
<path d="M306.817 38.9476L305.015 39.8492L306.518 41.14L307.87 39.978L306.817 38.9476Z" fill="#151819" fill-opacity="0.75"/>
<path d="M306.218 51.7268L304.865 53.2752L307.271 53.7904L308.02 52.242L306.218 51.7268Z" fill="#1FFA1F" fill-opacity="0.5"/>
<path d="M299.453 41.14L297.65 41.658L298.703 43.464L300.356 43.0776L299.453 41.14Z" fill="#1FFA1F" fill-opacity="0.5"/>
<path d="M278.563 51.3376L278.263 52.242L280.216 52.7572L280.366 50.9512L278.563 51.3376Z" fill="#1FFA1F"/>
<path d="M285.627 58.696L284.274 58.9536L285.027 60.2444L286.38 59.9868L285.627 58.696Z" fill="#151819" fill-opacity="0.75"/>
<path d="M286.38 47.3364H284.724L285.927 49.1452L286.38 47.3364Z" fill="#1FFA1F" fill-opacity="0.5"/>
<path d="M308.575 118.451L307.372 120.514L309.628 120.386L308.575 118.451Z" fill="#1FFA1F"/>
<path d="M320.598 122.581L319.245 124.129L321.651 124.644L322.4 123.096L320.598 122.581Z" fill="#1FFA1F" fill-opacity="0.5"/>
<path d="M292.943 122.192L292.643 123.096L294.599 123.614L294.749 121.805L292.943 122.192Z" fill="#1FFA1F"/>
<path d="M300.007 129.55L298.654 129.808L299.407 131.098L300.76 130.841L300.007 129.55Z" fill="#151819" fill-opacity="0.75"/>
<path d="M300.76 118.19H299.107L300.307 119.999L300.76 118.19Z" fill="#1FFA1F" fill-opacity="0.5"/>
<path d="M230.778 85.31L229.575 87.3764L231.831 87.2476L230.778 85.31Z" fill="#1FFA1F"/>
<path d="M242.801 89.44L241.448 90.9912L243.854 91.5064L244.604 89.958L242.801 89.44Z" fill="#1FFA1F" fill-opacity="0.5"/>
<path d="M222.211 96.412L220.858 96.6696L221.611 97.9604L222.964 97.7028L222.211 96.412Z" fill="#151819" fill-opacity="0.75"/>
<path d="M222.964 85.0524H221.311L222.51 86.8584L222.964 85.0524Z" fill="#1FFA1F" fill-opacity="0.5"/>
<path d="M242.654 50.8448L241.454 52.9084L243.707 52.7796L242.654 50.8448Z" fill="#1FFA1F"/>
<path d="M255.28 42.1956L253.477 43.0972L254.98 44.388L256.333 43.226L255.28 42.1956Z" fill="#151819" fill-opacity="0.75"/>
<path d="M254.68 54.9748L253.327 56.5232L255.73 57.0384L256.483 55.49L254.68 54.9748Z" fill="#1FFA1F" fill-opacity="0.5"/>
<path d="M247.916 44.388L246.113 44.906L247.166 46.712L248.819 46.3256L247.916 44.388Z" fill="#1FFA1F" fill-opacity="0.5"/>
<path d="M311.284 67.3956L310.081 69.4592L312.336 69.3304L311.284 67.3956Z" fill="#1FFA1F"/>
<path d="M323.307 71.5256L321.954 73.074L324.359 73.592L325.109 72.0408L323.307 71.5256Z" fill="#1FFA1F" fill-opacity="0.5"/>
<path d="M316.542 60.9416L314.739 61.4568L315.792 63.2628L317.445 62.8764L316.542 60.9416Z" fill="#1FFA1F" fill-opacity="0.5"/>
<path d="M227.026 54.5856L226.726 55.49L228.679 56.008L228.829 54.1992L227.026 54.5856Z" fill="#1FFA1F"/>
<path d="M234.09 61.944L232.737 62.2016L233.487 63.4952L234.84 63.2348L234.09 61.944Z" fill="#151819" fill-opacity="0.75"/>
<path d="M234.84 50.5844H233.187L234.39 52.3932L234.84 50.5844Z" fill="#1FFA1F" fill-opacity="0.5"/>
<path d="M273.494 121.962L272.291 124.028L274.543 123.9L273.494 121.962Z" fill="#1FFA1F"/>
<path d="M285.516 126.092L284.164 127.643L286.569 128.158L287.319 126.61L285.516 126.092Z" fill="#1FFA1F" fill-opacity="0.5"/>
<path d="M257.862 125.706L257.562 126.61L259.515 127.125L259.665 125.319L257.862 125.706Z" fill="#1FFA1F"/>
<path d="M265.676 121.704H264.023L265.226 123.51L265.676 121.704Z" fill="#1FFA1F" fill-opacity="0.5"/>
<path d="M221.953 125.21L220.753 127.276L223.006 127.148L221.953 125.21Z" fill="#1FFA1F"/>
<path d="M233.979 129.34L232.626 130.891L235.029 131.406L235.782 129.858L233.979 129.34Z" fill="#1FFA1F" fill-opacity="0.5"/>
<path d="M227.215 118.756L225.412 119.274L226.465 121.08L228.118 120.694L227.215 118.756Z" fill="#1FFA1F" fill-opacity="0.5"/>
<path d="M214.139 124.952H212.486L213.689 126.758L214.139 124.952Z" fill="#1FFA1F" fill-opacity="0.5"/>
<path d="M215.352 74.0736L214.149 76.14L216.405 76.0084L215.352 74.0736Z" fill="#1FFA1F"/>
<path d="M227.374 78.2036L226.021 79.7548L228.427 80.27L229.18 78.7216L227.374 78.2036Z" fill="#1FFA1F" fill-opacity="0.5"/>
<path d="M199.723 77.8172L199.42 78.7216L201.376 79.2368L201.526 77.4308L199.723 77.8172Z" fill="#1FFA1F"/>
<path d="M206.784 85.1756L205.435 85.4332L206.184 86.724L207.537 86.4664L206.784 85.1756Z" fill="#151819" fill-opacity="0.75"/>
<path d="M207.035 141.159L205.832 143.225L208.088 143.096L207.035 141.159Z" fill="#1FFA1F"/>
<path d="M199.221 140.901H197.565L198.768 142.707L199.221 140.901Z" fill="#1FFA1F" fill-opacity="0.5"/>
<path d="M203.632 134.052L202.279 135.604L204.685 136.119L205.435 134.57L203.632 134.052Z" fill="#1FFA1F" fill-opacity="0.5"/>
<path d="M183.042 141.024L181.689 141.282L182.442 142.573L183.795 142.315L183.042 141.024Z" fill="#151819" fill-opacity="0.75"/>
<path d="M207.537 73.816H205.885L207.087 75.622L207.537 73.816Z" fill="#1FFA1F" fill-opacity="0.5"/>
<path d="M264.421 79.3012L263.218 81.3676L265.474 81.2388L264.421 79.3012Z" fill="#1FFA1F"/>
<path d="M277.047 70.6548L275.241 71.5564L276.744 72.8472L278.097 71.6852L277.047 70.6548Z" fill="#151819" fill-opacity="0.75"/>
<path d="M294.195 102.412L292.992 104.476L295.244 104.347L294.195 102.412Z" fill="#1FFA1F"/>
<path d="M306.218 106.542L304.865 108.091L307.271 108.609L308.02 107.058L306.218 106.542Z" fill="#1FFA1F" fill-opacity="0.5"/>
<path d="M278.563 106.156L278.263 107.058L280.216 107.576L280.366 105.767L278.563 106.156Z" fill="#1FFA1F"/>
<path d="M285.627 113.514L284.274 113.772L285.027 115.063L286.38 114.802L285.627 113.514Z" fill="#151819" fill-opacity="0.75"/>
<path d="M286.38 102.155H284.724L285.927 103.961L286.38 102.155Z" fill="#1FFA1F" fill-opacity="0.5"/>
<path d="M314.935 89.4764L313.735 91.54L315.988 91.4112L314.935 89.4764Z" fill="#1FFA1F"/>
<path d="M299.306 93.22L299.006 94.1216L300.959 94.6396L301.109 92.8308L299.306 93.22Z" fill="#1FFA1F"/>
<path d="M307.121 89.216H305.468L306.671 91.0248L307.121 89.216Z" fill="#1FFA1F" fill-opacity="0.5"/>
<path d="M300.555 73.438L299.352 75.5016L301.608 75.3728L300.555 73.438Z" fill="#1FFA1F"/>
<path d="M312.578 77.568L311.225 79.1164L313.631 79.6344L314.381 78.086L312.578 77.568Z" fill="#1FFA1F" fill-opacity="0.5"/>
<path d="M291.988 84.54L290.635 84.7976L291.388 86.0884L292.741 85.8308L291.988 84.54Z" fill="#151819" fill-opacity="0.75"/>
<path d="M314.374 139.092L314.074 139.997L316.027 140.512L316.18 138.706L314.374 139.092Z" fill="#1FFA1F"/>
<path d="M322.192 135.091H320.539L321.738 136.897L322.192 135.091Z" fill="#1FFA1F" fill-opacity="0.5"/>
<path d="M307.059 130.412L305.706 130.67L306.456 131.961L307.809 131.703L307.059 130.412Z" fill="#151819" fill-opacity="0.75"/>
<path d="M292.741 73.1804H291.088L292.291 74.9864L292.741 73.1804Z" fill="#1FFA1F" fill-opacity="0.5"/>
<path d="M201.598 126.282L200.395 128.346L202.647 128.217L201.598 126.282Z" fill="#1FFA1F"/>
<path d="M200.717 103.712L200.417 104.616L202.373 105.131L202.523 103.325L200.717 103.712Z" fill="#1FFA1F"/>
<path d="M193.78 126.022H192.127L193.33 127.831L193.78 126.022Z" fill="#1FFA1F" fill-opacity="0.5"/>
<path d="M187.215 110.244L186.015 112.31L188.268 112.179L187.215 110.244Z" fill="#1FFA1F"/>
<path d="M199.241 114.374L197.888 115.922L200.29 116.44L201.043 114.892L199.241 114.374Z" fill="#1FFA1F" fill-opacity="0.5"/>
<path d="M178.651 121.346L177.298 121.604L178.047 122.894L179.4 122.637L178.651 121.346Z" fill="#151819" fill-opacity="0.75"/>
<path d="M179.4 109.986H177.748L178.95 111.792L179.4 109.986Z" fill="#1FFA1F" fill-opacity="0.5"/>
<path d="M277.047 125.47L275.241 126.375L276.744 127.666L278.097 126.504L277.047 125.47Z" fill="#151819" fill-opacity="0.75"/>
<path d="M276.444 83.434L275.091 84.9824L277.497 85.4976L278.247 83.9492L276.444 83.434Z" fill="#1FFA1F" fill-opacity="0.5"/>
<path d="M269.679 72.8472L267.877 73.3652L268.93 75.1712L270.583 74.7848L269.679 72.8472Z" fill="#1FFA1F" fill-opacity="0.5"/>
<path d="M248.789 83.0448L248.49 83.9492L250.442 84.4644L250.592 82.6584L248.789 83.0448Z" fill="#1FFA1F"/>
<path d="M255.854 90.4032L254.501 90.6608L255.254 91.9516L256.607 91.694L255.854 90.4032Z" fill="#151819" fill-opacity="0.75"/>
<path d="M256.607 79.0436H254.954L256.154 80.8496L256.607 79.0436Z" fill="#1FFA1F" fill-opacity="0.5"/>
<path d="M195.11 47.692L196.858 45.9364L194.634 45.5948L195.11 47.692Z" fill="#1FFA1F"/>
<path d="M180.43 53.4712L182.435 52.9672L181.34 51.402L179.7 52.2504L180.43 53.4712Z" fill="#151819" fill-opacity="0.75"/>
<path d="M184.603 41.1932L186.351 39.9696L184.16 38.97L182.996 40.3168L184.603 41.1932Z" fill="#1FFA1F" fill-opacity="0.5"/>
<path d="M188.193 52.8664L190.09 52.7376L189.575 50.7664L187.863 50.8L188.193 52.8664Z" fill="#1FFA1F" fill-opacity="0.5"/>
<path d="M195.11 93.0268L196.858 91.2712L194.634 90.9296L195.11 93.0268Z" fill="#1FFA1F"/>
<path d="M180.43 98.806L182.435 98.302L181.34 96.7368L179.7 97.5852L180.43 98.806Z" fill="#151819" fill-opacity="0.75"/>
<path d="M184.603 86.528L186.351 85.3044L184.16 84.3048L182.996 85.6544L184.603 86.528Z" fill="#1FFA1F" fill-opacity="0.5"/>
<path d="M188.193 98.2012L190.09 98.0724L189.575 96.1012L187.863 96.1348L188.193 98.2012Z" fill="#1FFA1F" fill-opacity="0.5"/>
<path d="M270.296 96.1348L272.043 94.3792L269.82 94.0376L270.296 96.1348Z" fill="#1FFA1F"/>
<path d="M255.616 101.914L257.621 101.41L256.525 99.8476L254.885 100.693L255.616 101.914Z" fill="#151819" fill-opacity="0.75"/>
<path d="M259.789 89.636L261.536 88.4124L259.345 87.4128L258.181 88.7624L259.789 89.636Z" fill="#1FFA1F" fill-opacity="0.5"/>
<path d="M180.659 69.6272L179.306 71.1784L181.708 71.6936L182.461 70.1452L180.659 69.6272Z" fill="#1FFA1F" fill-opacity="0.5"/>
<path d="M202.276 59.4884L201.073 61.5548L203.329 61.426L202.276 59.4884Z" fill="#1FFA1F"/>
<path d="M186.647 63.232L186.344 64.1364L188.3 64.6516L188.45 62.8456L186.647 63.232Z" fill="#1FFA1F"/>
<path d="M193.709 70.5904L192.359 70.848L193.109 72.1388L194.462 71.8812L193.709 70.5904Z" fill="#151819" fill-opacity="0.75"/>
<path d="M194.461 59.2308H192.809L194.012 61.0396L194.461 59.2308Z" fill="#1FFA1F" fill-opacity="0.5"/>
<path d="M197.643 69.8232L199.391 68.5996L197.203 67.6L196.039 68.9496L197.643 69.8232Z" fill="#1FFA1F" fill-opacity="0.5"/>
<path d="M239.381 71.2904L238.028 72.8416L240.434 73.3568L241.184 71.8084L239.381 71.2904Z" fill="#1FFA1F" fill-opacity="0.5"/>
<path d="M261.001 61.1516L259.798 63.218L262.051 63.0892L261.001 61.1516Z" fill="#1FFA1F"/>
<path d="M245.37 64.8952L245.07 65.7996L247.023 66.3148L247.173 64.5088L245.37 64.8952Z" fill="#1FFA1F"/>
<path d="M252.434 72.2536L251.081 72.5112L251.831 73.802L253.184 73.5444L252.434 72.2536Z" fill="#151819" fill-opacity="0.75"/>
<path d="M253.184 60.894H251.531L252.734 62.7L253.184 60.894Z" fill="#1FFA1F" fill-opacity="0.5"/>
<path d="M256.366 71.4864L258.116 70.2628L255.926 69.2632L254.762 70.6128L256.366 71.4864Z" fill="#1FFA1F" fill-opacity="0.5"/>
<path d="M226.22 32.6028L224.867 34.1512L227.273 34.6692L228.026 33.118L226.22 32.6028Z" fill="#1FFA1F" fill-opacity="0.5"/>
<path d="M232.212 26.2076L231.909 27.112L233.865 27.6272L234.015 25.8184L232.212 26.2076Z" fill="#1FFA1F"/>
<path d="M239.274 33.566L237.921 33.8236L238.674 35.1144L240.027 34.8568L239.274 33.566Z" fill="#151819" fill-opacity="0.75"/>
<path d="M240.027 22.2064H238.374L239.577 24.0124L240.027 22.2064Z" fill="#1FFA1F" fill-opacity="0.5"/>
<path d="M243.208 32.796L244.956 31.5752L242.768 30.5756L241.604 31.9224L243.208 32.796Z" fill="#1FFA1F" fill-opacity="0.5"/>
<path d="M285.843 27.6188L284.64 29.6824L286.892 29.5536L285.843 27.6188Z" fill="#1FFA1F"/>
<path d="M314.293 23.5588L312.487 24.4632L313.989 25.754L315.342 24.592L314.293 23.5588Z" fill="#151819" fill-opacity="0.75"/>
<path d="M297.865 31.7488L296.512 33.2972L298.915 33.8152L299.668 32.2668L297.865 31.7488Z" fill="#1FFA1F" fill-opacity="0.5"/>
<path d="M306.925 25.754L305.122 26.2692L306.175 28.0752L307.828 27.6888L306.925 25.754Z" fill="#1FFA1F" fill-opacity="0.5"/>
<path d="M270.211 31.3624L269.911 32.2668L271.864 32.782L272.014 30.9732L270.211 31.3624Z" fill="#1FFA1F"/>
<path d="M277.275 38.7208L275.922 38.9784L276.675 40.2692L278.025 40.0116L277.275 38.7208Z" fill="#151819" fill-opacity="0.75"/>
<path d="M278.025 27.3612H276.372L277.575 29.1672L278.025 27.3612Z" fill="#1FFA1F" fill-opacity="0.5"/>
<path d="M281.207 37.9508L282.958 36.73L280.767 35.7304L279.603 37.0772L281.207 37.9508Z" fill="#1FFA1F" fill-opacity="0.5"/>
<path d="M263.378 101.309L265.275 101.18L264.76 99.2092L263.049 99.2428L263.378 101.309Z" fill="#1FFA1F" fill-opacity="0.5"/>
<path d="M211.332 47.2972L211.876 46.4824L210.126 45.5752L209.47 47.3L211.332 47.2972Z" fill="#1FFA1F"/>
<path d="M206.54 38.6928L207.925 38.7208L207.56 37.3124L206.175 37.2844L206.54 38.6928Z" fill="#151819" fill-opacity="0.75"/>
<path d="M202.621 49.5624L204.229 49.904L203.567 47.8992L202.621 49.5624Z" fill="#1FFA1F" fill-opacity="0.5"/>
<path d="M204.238 32.0288L205.986 30.2732L203.759 29.9316L204.238 32.0288Z" fill="#1FFA1F"/>
<path d="M189.558 37.808L191.56 37.304L190.465 35.7416L188.825 36.5872L189.558 37.808Z" fill="#151819" fill-opacity="0.75"/>
<path d="M193.728 25.53L195.475 24.3064L193.288 23.3068L192.124 24.6564L193.728 25.53Z" fill="#1FFA1F" fill-opacity="0.5"/>
<path d="M197.321 37.2032L199.215 37.0744L198.703 35.1032L196.988 35.1368L197.321 37.2032Z" fill="#1FFA1F" fill-opacity="0.5"/>
<path d="M220.457 31.634L221.005 30.8192L219.251 29.912L218.599 31.6368L220.457 31.634Z" fill="#1FFA1F"/>
<path d="M215.668 23.0296L217.053 23.0604L216.685 21.652L215.299 21.6212L215.668 23.0296Z" fill="#151819" fill-opacity="0.75"/>
<path d="M211.749 33.8992L213.353 34.2408L212.695 32.2388L211.749 33.8992Z" fill="#1FFA1F" fill-opacity="0.5"/>
<path d="M228.375 108.514L230.123 106.758L227.899 106.416L228.375 108.514Z" fill="#1FFA1F"/>
<path d="M213.696 114.293L215.7 113.789L214.605 112.226L212.965 113.072L213.696 114.293Z" fill="#151819" fill-opacity="0.75"/>
<path d="M217.868 102.015L219.616 100.791L217.425 99.7916L216.261 101.141L217.868 102.015Z" fill="#1FFA1F" fill-opacity="0.5"/>
<path d="M221.458 113.688L223.355 113.559L222.84 111.588L221.128 111.622L221.458 113.688Z" fill="#1FFA1F" fill-opacity="0.5"/>
<path d="M244.597 108.119L245.141 107.304L243.391 106.397L242.736 108.122L244.597 108.119Z" fill="#1FFA1F"/>
<path d="M239.808 99.5144L241.19 99.5452L240.825 98.1368L239.44 98.106L239.808 99.5144Z" fill="#151819" fill-opacity="0.75"/>
<path d="M235.89 110.384L237.494 110.726L236.832 108.724L235.89 110.384Z" fill="#1FFA1F" fill-opacity="0.5"/>
<path d="M222.211 132.493L220.858 132.75L221.611 134.041L222.964 133.784L222.211 132.493Z" fill="#151819" fill-opacity="0.75"/>
<path d="M294.195 138.493L292.992 140.56L295.244 140.428L294.195 138.493Z" fill="#1FFA1F"/>
<path d="M306.218 142.623L304.865 144.172L307.271 144.69L308.02 143.141L306.218 142.623Z" fill="#1FFA1F" fill-opacity="0.5"/>
<path d="M278.563 142.237L278.263 143.141L280.216 143.656L280.366 141.85L278.563 142.237Z" fill="#1FFA1F"/>
<path d="M286.38 138.236H284.724L285.927 140.042L286.38 138.236Z" fill="#1FFA1F" fill-opacity="0.5"/>
<path d="M314.896 110.765L314.596 111.666L316.548 112.184L316.698 110.376L314.896 110.765Z" fill="#1FFA1F"/>
<path d="M196.121 141.17L194.918 143.234L197.174 143.105L196.121 141.17Z" fill="#1FFA1F"/>
<path d="M188.307 140.91H186.654L187.857 142.718L188.307 140.91Z" fill="#1FFA1F" fill-opacity="0.5"/>
<path d="M180.43 134.887L182.435 134.383L181.34 132.82L179.7 133.666L180.43 134.887Z" fill="#151819" fill-opacity="0.75"/>
<path d="M202.947 107.97L204.841 107.842L204.33 105.87L202.615 105.904L202.947 107.97Z" fill="#1FFA1F" fill-opacity="0.5"/>
<path d="M270.296 132.216L272.043 130.46L269.82 130.118L270.296 132.216Z" fill="#1FFA1F"/>
<path d="M255.616 137.995L257.621 137.491L256.525 135.928L254.885 136.774L255.616 137.995Z" fill="#151819" fill-opacity="0.75"/>
<path d="M263.378 137.39L265.275 137.264L264.76 135.29L263.049 135.324L263.378 137.39Z" fill="#1FFA1F" fill-opacity="0.5"/>
<path d="M228.375 144.594L230.123 142.839L227.899 142.497L228.375 144.594Z" fill="#1FFA1F"/>
<path d="M217.868 138.096L219.616 136.872L217.425 135.872L216.261 137.222L217.868 138.096Z" fill="#1FFA1F" fill-opacity="0.5"/>
<path d="M244.597 144.2L245.141 143.385L243.391 142.48L242.736 144.202L244.597 144.2Z" fill="#1FFA1F"/>
<path d="M239.808 135.595L241.19 135.626L240.825 134.218L239.44 134.187L239.808 135.595Z" fill="#151819" fill-opacity="0.75"/>
<path d="M235.89 146.465L237.494 146.806L236.832 144.804L235.89 146.465Z" fill="#1FFA1F" fill-opacity="0.5"/>
<path d="M260.74 56.68C260.74 56.68 261.36 56.68 263.087 57.7468L267.505 60.474C267.505 60.474 271.303 54.314 272.395 53.5356C273.487 52.7572 276.261 54.4848 276.607 56.5008C276.952 58.5168 276.538 61.6024 275.629 64.1532C274.719 66.704 272.727 68.8964 269.829 69.6664C266.931 70.4364 264.939 69.9632 262.983 68.7788C261.027 67.5944 259.426 65.64 257.976 64.1448L256.528 62.6608C258.284 60.8661 259.705 58.8486 260.74 56.68V56.68Z" fill="#1FFA1F" stroke="#151819" stroke-opacity="0.75" stroke-miterlimit="10"/>
<path d="M274.061 63.9096C275.2 61.6414 276.073 59.2815 276.669 56.8648C276.652 56.736 276.636 56.6128 276.613 56.4924C276.56 56.2027 276.462 55.9202 276.323 55.6524L275.717 55.5628C275.144 58.2856 274.211 60.9433 272.936 63.484C271.43 66.3876 269.754 68.0564 268.219 68.1796C266.067 68.3504 261.213 65.8136 257.337 63.5036C257.51 63.68 257.718 63.89 257.969 64.1504C258.621 64.8084 259.299 65.5504 260.03 66.2952C263.678 68.2552 266.364 69.238 268.033 69.238C268.133 69.2424 268.233 69.2424 268.333 69.238C270.39 69.056 272.32 67.2696 274.061 63.9096Z" fill="#151819" fill-opacity="0.75"/>
<path d="M267.492 66.2616H267.57C268.548 66.2616 270.158 65.5644 273.066 60.2416C274.315 57.9596 275.348 55.6468 275.723 54.7676C275.518 54.5384 275.288 54.3265 275.035 54.1348L274.729 54.0424C271.841 60.9612 268.77 65.2088 267.557 65.2088H267.537C266.064 65.1528 261.995 62.882 258.331 60.5692C258.083 60.894 257.849 61.1824 257.637 61.4372C260.978 63.54 265.545 66.2 267.492 66.2616Z" fill="#151819" fill-opacity="0.75"/>
<path d="M259.143 59.4464C259.919 59.9112 260.903 60.4908 261.921 61.0508C265.057 62.784 266.485 63.2488 267.238 63.2488C267.447 63.2532 267.653 63.2076 267.834 63.1172C268.832 62.602 271.844 57.3268 273.927 53.5132C273.728 53.4229 273.511 53.3679 273.286 53.3515C273.062 53.3351 272.837 53.3578 272.623 53.418C270.208 57.8 267.87 61.72 267.225 62.1988H267.185C266.452 62.1988 263.557 60.8492 259.736 58.5252C259.538 58.8472 259.339 59.1524 259.143 59.4464Z" fill="#151819" fill-opacity="0.75"/>
<path d="M276.649 52.76C276.649 52.76 278.279 58.3236 277.999 58.822C277.718 59.3204 276.59 58.4636 276.043 58.7408C275.495 59.018 275.299 59.6228 274.475 59.3596C273.65 59.0964 273.868 58.2396 273.255 58.08C272.643 57.9204 271.951 59.0516 271.176 58.3152C270.4 57.5788 271.42 56.7808 270.628 56.442C269.836 56.1032 269.229 56.6688 268.74 55.7504C268.251 54.832 273.226 51.4972 273.226 51.4972C273.226 51.4972 275.254 52.998 276.649 52.76Z" fill="white" stroke="#151819" stroke-opacity="0.75" stroke-miterlimit="10"/>
<path d="M273.145 52.2756C273.145 52.2756 273.223 50.1756 273.601 49.5092C273.979 48.8428 275.189 48.4788 275.766 47.5632C276.343 46.6476 276.656 45.6032 277.415 46.3928C278.175 47.1824 277.885 47.6444 277.35 48.1428C277.012 48.4585 276.7 48.7934 276.414 49.1452C276.414 49.1452 279.563 48.532 279.948 48.378C280.333 48.224 280.871 48.4732 281.519 47.0676C282.168 45.662 283.101 45.5248 283.573 46.6588C284.046 47.7928 283.345 49.8508 282.305 50.7776C281.265 51.7044 281.327 51.85 279.244 52.6788C277.161 53.5076 275.466 54.1124 274.426 53.5468C273.844 53.2589 273.393 52.811 273.145 52.2756V52.2756Z" fill="white" stroke="#151819" stroke-opacity="0.75" stroke-miterlimit="10"/>
<path d="M281.174 47.6136C281.174 47.6136 281.425 46.5636 281.956 46.4516C282.488 46.3396 282.902 47.2496 283.042 48.2716C283.182 49.2936 283.042 50.0524 282.716 50.366C282.39 50.6796 281.634 50.4136 281.5 49.61C281.366 48.8064 281.174 47.6136 281.174 47.6136Z" fill="white" stroke="#151819" stroke-opacity="0.75" stroke-miterlimit="10"/>
<path d="M280.796 48.6216C280.796 48.6216 280.714 47.5772 281.337 47.426C281.96 47.2748 282.1 47.72 282.387 48.56C282.674 49.4 282.837 50.52 282.494 50.898C282.152 51.276 281.455 51.3712 281.19 51.0044C280.926 50.6376 280.796 48.6216 280.796 48.6216Z" fill="white" stroke="#151819" stroke-opacity="0.75" stroke-miterlimit="10"/>
<path d="M275.039 52.4436C275.039 52.4436 275.381 51.3236 276.617 51.0184C277.852 50.7132 280.137 50.6012 280.137 50.6012C280.137 50.6012 279.955 48.2632 281.011 48.3612C282.067 48.4592 281.944 50.9792 281.624 51.5056C281.305 52.032 277.223 53.6476 276.196 53.4656" fill="white"/>
<path d="M275.039 52.4436C275.039 52.4436 275.381 51.3236 276.617 51.0184C277.852 50.7132 280.137 50.6012 280.137 50.6012C280.137 50.6012 279.955 48.2632 281.011 48.3612C282.067 48.4592 281.944 50.9792 281.624 51.5056C281.305 52.032 277.223 53.6476 276.196 53.4656" stroke="#151819" stroke-opacity="0.75" stroke-miterlimit="10"/>
<path d="M251.052 113.635C251.052 113.635 249.533 113.635 248.013 114.881C246.494 116.127 244.561 118.084 245.18 119.268C245.8 120.453 248.978 123.538 250.224 125.792C251.469 128.046 254.158 130.774 256.506 131.132C258.853 131.49 263.619 131.308 263.756 128.105C263.893 124.902 261.686 124.608 259.476 124.72C257.265 124.832 256.92 124.838 256.92 124.838C256.92 124.838 254.504 121.161 254.295 118.907C254.087 116.653 254.09 115.942 254.09 115.942C254.09 115.942 252.571 113.873 251.052 113.635Z" fill="#1FFA1F" fill-opacity="0.5" stroke="#151819" stroke-opacity="0.75" stroke-miterlimit="10"/>
<path d="M253.33 128.226C253.346 128.804 253.514 129.372 253.823 129.886C254.577 130.493 255.501 130.922 256.506 131.132C258.853 131.488 263.619 131.308 263.756 128.105C263.893 124.902 261.686 124.608 259.475 124.72C257.265 124.832 256.92 124.838 256.92 124.838C256.92 124.838 253.262 125.56 253.33 128.226Z" fill="white" stroke="#151819" stroke-opacity="0.75" stroke-miterlimit="10"/>
<path d="M254.295 118.913C254.09 116.659 254.09 115.948 254.09 115.948C253.843 115.624 253.572 115.314 253.278 115.021C252.3 114.861 251.074 114.948 250.566 116.186C250.566 116.186 252.418 121.87 253.536 123.186C254.654 124.502 255.935 124.605 256.059 123.412C255.342 122.136 254.419 120.268 254.295 118.913Z" fill="white" stroke="#151819" stroke-opacity="0.75" stroke-miterlimit="10"/>
<path d="M257.888 106.934C257.888 106.934 250.224 113.458 249.946 114.702C249.669 115.945 250.924 117.846 252.571 117.728C254.217 117.611 262.1 112.627 262.1 112.627C262.1 112.627 258.025 108.892 257.888 106.934Z" fill="#1FFA1F" stroke="#151819" stroke-opacity="0.75" stroke-miterlimit="10"/>
<path d="M259.495 60.6C260.739 62.6784 261.557 64.925 261.914 67.2416C262.533 71.1616 261.705 76.2576 262.119 79.7548C262.533 83.252 266.4 87.6424 268.542 91.4392C270.683 95.236 271.717 101.108 269.647 105.672C267.577 110.236 263.916 112.672 260.395 113.145C256.874 113.618 254.455 111.249 254.455 109.944C254.455 108.64 256.943 104.367 257.771 101.995C258.599 99.6236 258.116 95.4712 256.943 94.76C255.769 94.0488 252.379 95.2948 247.619 94.2868C242.859 93.2788 242.025 91.0248 241.819 89.2468C241.614 87.4688 241.956 83.5544 240.923 80.8272C239.889 78.1 238.641 75.37 238.641 75.37C238.641 75.37 241.193 71.17 241.125 66.354C241.057 61.538 239.951 60.7792 243.472 59.4744C246.993 58.1696 254.041 55.2464 259.495 60.6Z" fill="#1FFA1F" fill-opacity="0.5" stroke="#151819" stroke-opacity="0.75" stroke-miterlimit="10"/>
<path d="M268.541 91.4252C266.4 87.6284 262.533 83.2408 262.119 79.7408C261.705 76.2408 262.533 71.142 261.914 67.2276C261.555 64.9158 260.737 62.674 259.495 60.6C257.174 58.3264 254.563 57.5508 252.059 57.52L251.733 63.5092C251.733 63.5092 253.193 79.8472 254.771 83.0364C256.349 86.2256 259.723 94.732 258.598 97.826C258.494 98.106 258.354 98.4224 258.191 98.75C258.247 99.8469 258.109 100.945 257.783 102.006C256.955 104.381 254.468 108.651 254.468 109.956C254.468 111.26 256.884 113.632 260.408 113.156C263.932 112.68 267.58 110.25 269.66 105.683C271.74 101.116 270.69 95.222 268.541 91.4252Z" fill="#151819" fill-opacity="0.75" stroke="#151819" stroke-opacity="0.75" stroke-miterlimit="10"/>
<path d="M239.208 58.78C239.208 58.78 236.535 60.0148 235.713 62.0784C234.892 64.142 234.204 70.8536 234.204 70.8536C234.204 70.8536 228.988 69.6748 227.622 69.028C226.256 68.3812 224.466 71.2064 224.535 71.7944C224.603 72.3824 228.238 77.8032 233.663 79.0408C239.088 80.2784 240.313 78.156 240.313 78.156C240.313 78.156 242.233 76.0952 242.439 70.316C242.644 64.5368 243.743 62.4256 243.743 62.4256C243.743 62.4256 240.991 59.1328 239.208 58.78Z" fill="#1FFA1F" stroke="#151819" stroke-opacity="0.75" stroke-miterlimit="10"/>
<path d="M236.747 71.9484L236.841 71.2848C236.841 71.24 237.493 66.7544 238.116 63.2964C238.664 60.2976 240.15 60.0064 240.166 60.0036L240.065 59.4856L240.003 59.0852C239.941 59.0516 239.883 59.0208 239.821 58.9928C239.254 59.1244 237.513 59.7936 236.906 63.134C236.417 65.8164 235.928 69.1064 235.723 70.4924L234.295 70.0304C234.236 70.54 234.204 70.8536 234.204 70.8536C234.204 70.8536 232.496 70.4672 230.778 70.0136L236.747 71.9484Z" fill="#151819" fill-opacity="0.75"/>
<path d="M242.269 62.2632C242.269 62.308 241.496 66.8832 240.743 69.7896C240.548 70.5428 240.417 71.3632 240.261 72.1528C239.863 74.3732 239.449 76.6664 238.028 77.2096C237.089 77.568 231.697 75.8096 225.558 73.4492C226.034 74.0611 226.555 74.6465 227.117 75.202C231.39 76.8008 235.847 78.268 237.826 78.268C238.065 78.2766 238.303 78.2433 238.527 78.17C240.558 77.3944 241.024 74.81 241.461 72.3152C241.601 71.5396 241.744 70.7388 241.93 70.0192C242.227 68.874 242.523 67.4796 242.778 66.2C242.895 65.3796 243.032 64.7104 243.159 64.1756C243.348 63.1396 243.469 62.4284 243.485 62.4116L242.269 62.2632Z" fill="#151819" fill-opacity="0.75"/>
<path d="M235.994 74.2024C236.54 74.3836 237.115 74.494 237.699 74.53C238.059 74.5243 238.415 74.4616 238.748 74.3452C240.007 73.9392 239.883 72.5 239.811 71.6404C239.811 71.478 239.785 71.3324 239.785 71.2204C239.785 70.8676 240.069 69.0728 240.343 67.3396C240.554 66.004 240.77 64.6264 240.929 63.4952C241.255 61.2356 242.077 60.852 242.087 60.8492L242.048 60.8632L241.917 60.5272C241.728 60.3536 241.532 60.18 241.334 60.0148C240.851 60.3088 240.03 61.1348 239.704 63.3748C239.547 64.4948 239.329 65.8696 239.12 67.1996C238.765 69.4396 238.55 70.82 238.55 71.2232C238.55 71.366 238.55 71.5312 238.579 71.7216C238.621 72.2116 238.709 73.2336 238.308 73.3624C237.689 73.5612 237.536 73.522 236.352 73.2C236.049 73.1188 235.7 73.0208 235.25 72.92C234.171 72.64 229.555 71.464 225.219 70.3496C224.997 70.6516 224.809 70.9714 224.659 71.3044C229.056 72.4244 233.806 73.6508 234.905 73.928C235.342 74.04 235.694 74.1212 235.994 74.2024Z" fill="#151819" fill-opacity="0.75"/>
<path d="M234.204 70.8536C234.204 70.8536 237.532 71.2288 238.791 72.4468" stroke="#151819" stroke-opacity="0.75" stroke-miterlimit="10"/>
<path d="M222.207 69.7196C222.207 69.7196 223.453 75.3532 223.935 75.7088C224.418 76.0644 225.04 74.8688 225.66 74.9388C226.279 75.0088 226.765 75.4708 227.387 74.9388C228.01 74.4068 227.387 73.6928 227.87 73.3372C228.352 72.9816 229.529 73.7516 229.875 72.8024C230.22 71.8532 228.897 71.4976 229.458 70.904C230.018 70.3104 230.84 70.6072 230.84 69.5992C230.84 68.5912 224.695 67.3592 224.695 67.3592C224.695 67.3592 223.59 69.4228 222.207 69.7196Z" fill="white" stroke="#151819" stroke-opacity="0.75" stroke-miterlimit="10"/>
<path d="M225.151 67.8436C225.151 67.8436 223.99 65.8472 223.28 65.3488C222.569 64.8504 221.213 64.9596 220.179 64.2932C219.146 63.6268 218.308 62.742 217.985 63.7948C217.663 64.8476 218.178 65.1948 218.963 65.458C219.452 65.6354 219.927 65.8393 220.385 66.0684C220.385 66.0684 217.024 66.6788 216.574 66.6788C216.124 66.6788 215.733 67.124 214.377 66.0124C213.02 64.9008 212.052 65.1248 212.183 66.4016C212.313 67.6784 214.054 69.3976 215.54 69.896C217.027 70.3944 217.024 70.5624 219.479 70.5624C221.933 70.5624 223.87 70.5064 224.58 69.5628C224.991 69.0612 225.192 68.4555 225.151 67.8436Z" fill="white" stroke="#151819" stroke-opacity="0.75" stroke-miterlimit="10"/>
<path d="M214.983 66.41C214.983 66.41 214.197 65.4916 213.627 65.57C213.056 65.6484 213.128 66.704 213.522 67.7456C213.917 68.7872 214.448 69.462 214.911 69.6468C215.374 69.8316 215.984 69.2772 215.697 68.4512L214.983 66.41Z" fill="white" stroke="#151819" stroke-opacity="0.75" stroke-miterlimit="10"/>
<path d="M215.876 67.236C215.876 67.236 215.41 66.1944 214.735 66.2868C214.06 66.3792 214.165 66.8692 214.305 67.7876C214.445 68.706 214.875 69.84 215.41 70.0864C215.945 70.3328 216.659 70.148 216.714 69.6888C216.77 69.2296 215.876 67.236 215.876 67.236Z" fill="white" stroke="#151819" stroke-opacity="0.75" stroke-miterlimit="10"/>
<path d="M223.42 68.72C223.42 68.72 222.514 67.7764 221.157 67.9444C219.801 68.1124 217.542 68.8852 217.542 68.8852C217.542 68.8852 216.509 66.5556 215.541 67.0568C214.572 67.558 215.99 69.9408 216.574 70.3272C217.157 70.7136 221.933 70.7164 222.836 70.162" fill="white"/>
<path d="M223.42 68.72C223.42 68.72 222.514 67.7764 221.157 67.9444C219.801 68.1124 217.542 68.8852 217.542 68.8852C217.542 68.8852 216.509 66.5556 215.541 67.0568C214.572 67.558 215.99 69.9408 216.574 70.3272C217.157 70.7136 221.933 70.7164 222.836 70.162" stroke="#151819" stroke-opacity="0.75" stroke-miterlimit="10"/>
<path d="M244.059 41.2268C244.059 41.2268 240.633 41.3976 239.439 42.3804C238.246 43.3632 239.589 43.4472 239.788 43.5004C239.987 43.5536 236.31 45.5472 235.961 46.8268C235.612 48.1064 236.613 47.9468 236.613 47.9468C236.613 47.9468 234.426 50.0356 234.823 50.8896C235.221 51.7436 237.06 51.0604 237.06 51.0604C237.06 51.0604 237.007 54.7732 238.103 55.1148C238.403 55.2142 238.732 55.2304 239.044 55.1611C239.355 55.0918 239.634 54.9405 239.84 54.7284C239.84 54.7284 240.818 56.9908 242.077 56.9908C243.335 56.9908 243.765 56.5652 243.765 56.5652C243.765 56.5652 246.944 57.8868 248.385 57.6852C249.826 57.4836 253.65 57.0888 253.65 57.0888C254.708 56.783 255.711 56.3514 256.629 55.8064C257.43 55.3255 258.164 54.7675 258.817 54.1432C258.817 54.1432 259.065 54.7032 259.612 54.0592C260.016 53.4892 260.318 52.8699 260.506 52.2224C260.506 52.2224 260.802 52.7824 261.301 51.8808C261.8 50.9792 260.952 48 260.952 48C260.952 48 261.604 48.896 261.451 47.4876C261.298 46.0792 258.618 43.6488 258.468 43.5676C258.318 43.4864 259.12 43.7804 258.468 42.9712C257.816 42.162 256.929 42.0752 252.805 41.2912C248.682 40.5072 244.059 41.2268 244.059 41.2268Z" fill="#1FFA1F" fill-opacity="0.5" stroke="#151819" stroke-opacity="0.75" stroke-miterlimit="10"/>
<path d="M245.947 41.098C245.947 41.098 246.494 40.4176 245.295 39.0092C244.095 37.6008 243.707 37.6092 245.396 36.45C247.084 35.2908 250.214 35.4672 251.404 35.8088C252.594 36.1504 253.686 37.2592 253.591 37.7296C253.497 38.2 252.206 40.16 252.802 41.28C252.802 41.28 249.324 42.806 245.947 41.098Z" fill="#151819" fill-opacity="0.75" stroke="#151819" stroke-opacity="0.75" stroke-miterlimit="10"/>
<path d="M252.802 41.28C252.519 40.7508 252.665 40.0284 252.907 39.3648C248.936 37.6848 246.432 39.138 245.735 39.6448C246.321 40.6332 245.937 41.1176 245.937 41.1176C249.324 42.806 252.802 41.28 252.802 41.28Z" fill="white" stroke="#151819" stroke-opacity="0.75" stroke-miterlimit="10"/>
<path d="M243.612 41.3556C243.612 41.3556 245.894 42.9768 250.22 42.848C254.546 42.7192 255.981 40.8432 255.635 40.328C255.29 39.8128 254.491 40.1572 253.894 40.4988C253.298 40.8404 251.759 41.5236 249.33 41.4368C246.902 41.35 245.307 40.286 244.365 40.37C243.423 40.454 243.215 40.72 243.612 41.3556Z" fill="#151819" fill-opacity="0.75" stroke="#151819" stroke-opacity="0.75" stroke-miterlimit="10"/>
<path d="M244.805 56.33L237.353 58.122C237.353 58.122 240.681 63.442 247.387 65.3348C254.093 67.2276 260.153 62.7728 261.148 59.2336C262.142 55.6944 261.695 55.3136 261.695 55.3136L251.41 55.7812L244.805 56.33Z" fill="white" stroke="#151819" stroke-opacity="0.75" stroke-miterlimit="10"/>
<path d="M242.074 58.5868L241.128 58.7212" stroke="#151819" stroke-opacity="0.75" stroke-miterlimit="10"/>
<path d="M247.14 57.8672L243.11 58.4384" stroke="#151819" stroke-opacity="0.75" stroke-miterlimit="10"/>
<path d="M247.782 59.1328L243.117 61.1348" stroke="#151819" stroke-opacity="0.75" stroke-miterlimit="10"/>
<path d="M248.877 59.8972L246.683 64.0216" stroke="#151819" stroke-opacity="0.75" stroke-miterlimit="10"/>
<path d="M250.765 60.684L250.66 65.0212" stroke="#151819" stroke-opacity="0.75" stroke-miterlimit="10"/>
<path d="M253.474 60.8408L255.668 63.3132" stroke="#151819" stroke-opacity="0.75" stroke-miterlimit="10"/>
<path d="M258.716 59.6844L259.508 59.956" stroke="#151819" stroke-opacity="0.75" stroke-miterlimit="10"/>
<path d="M254.227 58.1304L257.911 59.4044" stroke="#151819" stroke-opacity="0.75" stroke-miterlimit="10"/>
<path d="M253.646 57.058L259.162 57.1896" stroke="#151819" stroke-opacity="0.75" stroke-miterlimit="10"/>
<path d="M246.99 55.2632C246.99 55.2632 247.537 57.6544 247.586 58.5084C247.635 59.3624 248.678 60.768 250.765 60.684C252.851 60.6 254.093 59.4464 254.243 58.5504C254.393 57.6544 254.393 55.1904 254.393 55.1904C254.393 55.1904 248.929 56.246 246.99 55.2632Z" fill="white" stroke="#151819" stroke-opacity="0.75" stroke-miterlimit="10"/>
<path d="M247.736 46.6C247.736 46.6 246.791 49.4588 246.194 49.6296C245.598 49.8004 245.216 49.1592 245.216 49.1592C245.216 49.1592 244.717 52.0628 244.62 52.2756C244.522 52.4884 243.316 51.8052 243.316 51.8052C243.316 51.8052 242.012 52.6592 242.719 53.6392C243.427 54.6192 245.053 54.2804 245.053 54.2804C245.053 54.2804 247.785 56.498 248.779 56.9264C249.774 57.3548 251.163 57.8224 252.405 57.4388C253.647 57.0552 254.99 56.456 255.684 53.726C256.379 50.996 255.387 50.4836 255.189 49.8424C254.99 49.2012 254.791 47.9664 254.791 47.9664C254.791 47.9664 253.598 47.496 252.704 47.0284C252.186 46.7623 251.717 46.431 251.312 46.0456C251.312 46.0456 248.978 47.6248 248.532 47.4456C248.085 47.2664 247.736 46.6 247.736 46.6Z" fill="white" stroke="#151819" stroke-opacity="0.75" stroke-miterlimit="10"/>
<path d="M253.412 49.8032C253.458 50.0832 253.33 50.3296 253.128 50.3632C252.926 50.3968 252.721 50.184 252.675 49.904C252.63 49.624 252.753 49.3748 252.959 49.344C253.164 49.3132 253.353 49.5232 253.412 49.8032Z" fill="#151819" fill-opacity="0.75"/>
<path d="M249.373 50.24C249.418 50.52 249.291 50.7692 249.089 50.8C248.887 50.8308 248.682 50.618 248.633 50.338C248.584 50.058 248.714 49.8116 248.916 49.778C249.118 49.7444 249.324 49.96 249.373 50.24Z" fill="#151819" fill-opacity="0.75"/>
<path d="M247.14 48.8652C247.14 48.8652 248.281 47.202 250.269 48.14Z" fill="#151819" fill-opacity="0.75"/>
<path d="M251.958 48.14C251.958 48.14 253.399 46.8604 254.54 48.3528Z" fill="#151819" fill-opacity="0.75"/>
<path d="M252.506 52.62C252.506 52.62 250.55 53.0036 248.978 52.06C247.407 51.1164 246.145 52.6984 245.999 53.46C245.852 54.2216 247.14 54.7396 248.232 55.294C249.324 55.8484 250.171 57.3828 251.56 57.4696C252.949 57.5564 253.842 56.1032 254.393 55.5488C254.944 54.9944 255.883 53.3732 255.834 52.564C255.785 51.7548 253.845 52.3932 253.399 52.5192C253.111 52.602 252.808 52.6363 252.506 52.62Z" fill="#1FFA1F" fill-opacity="0.5" stroke="#151819" stroke-opacity="0.75" stroke-miterlimit="10"/>
<path d="M248.678 53.0456L247.736 53.6868" stroke="#151819" stroke-opacity="0.75" stroke-miterlimit="10"/>
<path d="M248.232 53.3452C248.232 53.3452 250.22 54.7956 251.661 54.7452C253.102 54.6948 254.344 54.104 254.938 53.124" stroke="#151819" stroke-opacity="0.75" stroke-miterlimit="10"/>
<path d="M250.171 54.454C250.171 54.454 250.765 55.6048 251.41 55.7756C252.056 55.9464 253.001 54.538 253.001 54.538C253.001 54.538 251.312 54.8796 250.171 54.454Z" fill="#151819" fill-opacity="0.75" stroke="#151819" stroke-opacity="0.75" stroke-miterlimit="10"/>
<path d="M254.641 51.64C254.641 51.3194 254.53 51.0059 254.323 50.7393C254.115 50.4727 253.82 50.2649 253.476 50.1422C253.131 50.0195 252.751 49.9874 252.385 50.05C252.019 50.1125 251.683 50.2669 251.419 50.4936C251.155 50.7204 250.975 51.0092 250.902 51.3237C250.829 51.6382 250.867 51.9642 251.009 52.2604C251.152 52.5566 251.394 52.8098 251.705 52.988C252.015 53.1661 252.38 53.2612 252.753 53.2612C253.001 53.2612 253.247 53.2193 253.476 53.1378C253.705 53.0563 253.913 52.9369 254.088 52.7864C254.263 52.6358 254.402 52.4571 254.497 52.2604C254.592 52.0637 254.641 51.8529 254.641 51.64V51.64Z" fill="#151819" fill-opacity="0.75" stroke="#151819" stroke-opacity="0.75" stroke-miterlimit="10"/>
<path d="M253.382 50.618C253.382 50.8252 253.122 50.9904 252.802 50.9904C252.483 50.9904 252.222 50.8252 252.222 50.618C252.222 50.4108 252.479 50.2428 252.802 50.2428C253.125 50.2428 253.382 50.4108 253.382 50.618Z" fill="white"/>
<path d="M251.263 59.83C251.263 59.83 248.183 57.31 247.14 57.87C246.096 58.43 246.162 63.0332 247.687 63.19C249.213 63.3468 251.759 60.7988 251.759 60.7988C251.759 60.7988 253.549 62.6356 254.791 62.42C256.033 62.2044 256.626 58.9648 255.387 57.5144C254.149 56.064 252.506 57.4836 251.263 59.83Z" fill="#151819" fill-opacity="0.75" stroke="#151819" stroke-opacity="0.75" stroke-miterlimit="10"/>
<path d="M251.378 114.382C247.951 114.382 244.601 115.255 241.751 116.89C238.902 118.526 236.681 120.85 235.37 123.569C234.058 126.289 233.715 129.281 234.384 132.168C235.052 135.055 236.703 137.706 239.126 139.788C241.549 141.869 244.636 143.286 247.997 143.86C251.358 144.435 254.842 144.14 258.008 143.014C261.174 141.887 263.881 139.98 265.784 137.532C267.688 135.085 268.705 132.208 268.705 129.264C268.704 125.318 266.878 121.533 263.629 118.742C260.379 115.951 255.973 114.383 251.378 114.382V114.382ZM251.378 141.565C248.545 141.565 245.776 140.843 243.421 139.492C241.066 138.14 239.231 136.219 238.147 133.972C237.063 131.724 236.779 129.251 237.332 126.865C237.884 124.479 239.248 122.287 241.251 120.567C243.254 118.846 245.806 117.675 248.584 117.2C251.362 116.726 254.241 116.969 256.858 117.9C259.475 118.831 261.712 120.408 263.285 122.431C264.859 124.453 265.699 126.832 265.699 129.264C265.699 132.527 264.19 135.655 261.504 137.962C258.819 140.269 255.176 141.565 251.378 141.565Z" fill="#151819" fill-opacity="0.75" stroke="#151819" stroke-opacity="0.75" stroke-miterlimit="10"/>
<path d="M253.229 129.264C253.229 129.579 253.121 129.886 252.917 130.148C252.714 130.41 252.425 130.613 252.086 130.734C251.748 130.854 251.376 130.886 251.016 130.824C250.657 130.763 250.327 130.611 250.068 130.389C249.809 130.167 249.633 129.883 249.561 129.575C249.49 129.266 249.527 128.946 249.667 128.656C249.807 128.365 250.044 128.117 250.349 127.942C250.653 127.767 251.011 127.674 251.378 127.674C251.869 127.674 252.34 127.842 252.687 128.14C253.034 128.438 253.229 128.843 253.229 129.264V129.264Z" stroke="#151819" stroke-opacity="0.75" stroke-miterlimit="10"/>
<path d="M249.641 96.4488L247.807 96.5584L249.28 114.745L251.115 114.636L249.641 96.4488Z" fill="white" stroke="#151819" stroke-opacity="0.75" stroke-miterlimit="10"/>
<path d="M251.352 129.438C250.965 129.438 250.593 129.313 250.31 129.087C250.027 128.861 249.854 128.551 249.826 128.22L248.607 114.08C248.592 113.908 248.617 113.735 248.68 113.571C248.743 113.407 248.843 113.256 248.974 113.125C249.105 112.994 249.265 112.887 249.445 112.81C249.624 112.732 249.82 112.686 250.02 112.673C250.22 112.66 250.422 112.682 250.612 112.736C250.803 112.79 250.98 112.876 251.132 112.989C251.284 113.101 251.409 113.239 251.499 113.393C251.589 113.547 251.643 113.715 251.658 113.887L252.877 128.021C252.905 128.367 252.772 128.709 252.508 128.971C252.243 129.234 251.869 129.395 251.466 129.421L251.352 129.438Z" fill="white" stroke="#151819" stroke-opacity="0.75" stroke-miterlimit="10"/>
<path d="M244.039 93.3124C242.833 94.8944 243.537 96.636 245.637 97.2324C246.781 97.56 249.676 97.0364 251.352 97.0364C253.027 97.0364 255.084 98.2796 255.847 97.6916C256.61 97.1036 256.913 96.1852 255.313 94.6816C253.712 93.178 250.895 92.52 249.22 92.2596C247.544 91.9992 245.334 91.61 244.039 93.3124Z" fill="#151819" fill-opacity="0.75" stroke="#151819" stroke-opacity="0.75" stroke-miterlimit="10"/>
<path d="M252.352 72.0464C253.685 72.0464 254.765 71.1187 254.765 69.9744C254.765 68.8301 253.685 67.9024 252.352 67.9024C251.02 67.9024 249.94 68.8301 249.94 69.9744C249.94 71.1187 251.02 72.0464 252.352 72.0464Z" fill="white" stroke="#151819" stroke-opacity="0.75" stroke-miterlimit="10"/>
<path d="M253.559 80.5948C254.891 80.5948 255.971 79.6671 255.971 78.5228C255.971 77.3785 254.891 76.4508 253.559 76.4508C252.226 76.4508 251.146 77.3785 251.146 78.5228C251.146 79.6671 252.226 80.5948 253.559 80.5948Z" fill="white" stroke="#151819" stroke-opacity="0.75" stroke-miterlimit="10"/>
<path d="M246.308 106.962C246.308 106.962 244.789 106.962 243.27 108.208C241.751 109.454 239.818 111.412 240.437 112.599C241.056 113.786 244.235 116.88 245.48 119.12C246.726 121.36 249.415 124.101 251.762 124.457C254.109 124.812 258.876 124.636 259.013 121.433C259.149 118.23 256.942 117.933 254.732 118.05C252.522 118.168 252.176 118.171 252.176 118.171C252.176 118.171 249.761 114.494 249.568 112.24C249.376 109.986 249.363 109.275 249.363 109.275C249.363 109.275 247.827 107.2 246.308 106.962Z" fill="#1FFA1F" fill-opacity="0.5" stroke="#151819" stroke-opacity="0.75" stroke-miterlimit="10"/>
<path d="M248.587 121.553C248.603 122.132 248.771 122.701 249.079 123.216C249.834 123.823 250.758 124.251 251.762 124.46C254.109 124.815 258.876 124.639 259.013 121.436C259.149 118.232 256.942 117.936 254.732 118.053C252.522 118.171 252.176 118.174 252.176 118.174C252.176 118.174 248.522 118.885 248.587 121.553Z" fill="white" stroke="#151819" stroke-opacity="0.75" stroke-miterlimit="10"/>
<path d="M249.552 112.243C249.347 109.989 249.347 109.278 249.347 109.278C249.1 108.953 248.829 108.642 248.535 108.348C247.557 108.189 246.331 108.278 245.823 109.513C245.823 109.513 247.674 115.197 248.792 116.513C249.911 117.829 251.192 117.933 251.316 116.737C250.598 115.463 249.676 113.596 249.552 112.243Z" fill="white" stroke="#151819" stroke-opacity="0.75" stroke-miterlimit="10"/>
<path d="M253.145 100.262C253.145 100.262 245.48 106.8 245.203 108.032C244.926 109.264 246.181 111.174 247.828 111.056C249.474 110.938 257.357 105.96 257.357 105.96C257.357 105.96 253.282 102.219 253.145 100.262Z" fill="#1FFA1F" stroke="#151819" stroke-opacity="0.75" stroke-miterlimit="10"/>
<path d="M243.958 86.2648C243.958 86.2648 246.651 83.8932 250.586 83.8932C254.52 83.8932 262.876 86.3236 265.777 87.452C268.679 88.5804 272.059 91.484 271.508 95.516C270.957 99.548 263.639 104.65 260.946 105.96C258.253 107.27 255.423 107.385 253.282 104.952C251.14 102.519 254.664 96.5324 254.664 96.5324C251.796 96.6071 248.944 96.1407 246.308 95.166C244.447 94.4626 242.972 93.1716 242.188 91.5601C241.404 89.9487 241.371 88.1401 242.096 86.5084" fill="#1FFA1F" fill-opacity="0.5"/>
<path d="M243.958 86.2648C243.958 86.2648 246.651 83.8932 250.586 83.8932C254.52 83.8932 262.876 86.3236 265.777 87.452C268.679 88.5804 272.059 91.484 271.508 95.516C270.957 99.548 263.639 104.65 260.946 105.96C258.253 107.27 255.423 107.385 253.282 104.952C251.14 102.519 254.664 96.5324 254.664 96.5324C251.796 96.6071 248.944 96.1407 246.308 95.166C244.447 94.4626 242.972 93.1716 242.188 91.5601C241.404 89.9487 241.371 88.1401 242.096 86.5084" stroke="#151819" stroke-opacity="0.75" stroke-miterlimit="10"/>
<path d="M259.143 93.8444C259.651 93.6689 260.193 93.574 260.74 93.5644" stroke="#151819" stroke-opacity="0.75" stroke-miterlimit="10"/>
<path d="M254.664 96.5268C254.664 96.5268 255.919 94.6648 257.829 94.3988" stroke="#151819" stroke-opacity="0.75" stroke-miterlimit="10"/>
<path d="M244.437 119.848L250.527 129.57L252.62 127.447L245.18 119.268L244.437 119.848Z" fill="white" stroke="#151819" stroke-opacity="0.75" stroke-miterlimit="10"/>
<path d="M242.708 115.365L240.639 116.531L244.084 121.04L246.152 119.874L242.708 115.365Z" fill="#151819" fill-opacity="0.75" stroke="#151819" stroke-opacity="0.75" stroke-miterlimit="10"/>
<path d="M254.345 129.285C254.9 127.969 254.109 126.516 252.577 126.039C251.046 125.561 249.354 126.241 248.798 127.557C248.242 128.872 249.033 130.326 250.565 130.803C252.097 131.28 253.789 130.601 254.345 129.285Z" fill="white" stroke="#151819" stroke-opacity="0.75" stroke-miterlimit="10"/>
<path d="M319.183 25.04C319.183 29.3128 315.375 35.848 310.677 35.848C305.98 35.848 302.172 29.3128 302.172 25.04C302.172 20.7672 305.98 17.3036 310.677 17.3036C315.375 17.3036 319.183 20.7672 319.183 25.04Z" fill="#1FFA1F" fill-opacity="0.5" stroke="#151819" stroke-opacity="0.75" stroke-miterlimit="10"/>
<path d="M310.677 37.0436C310.677 37.0436 309.135 38.5696 309.135 42.0528C309.135 45.536 314.077 46.6196 313.191 52.3848C312.304 58.15 307.489 58.5868 306.729 62.504C305.97 66.4212 308.884 67.6168 308.884 67.6168" stroke="#151819" stroke-opacity="0.75" stroke-miterlimit="10"/>
<path d="M310.677 35.848C310.677 35.848 309.011 37.808 309.373 38.2448C309.735 38.6816 311.274 38.788 311.401 38.1356C311.528 37.4832 310.677 35.848 310.677 35.848Z" fill="#1FFA1F" fill-opacity="0.5" stroke="#151819" stroke-opacity="0.75" stroke-miterlimit="10"/>
<path d="M316.656 22.2848C316.177 23.0156 314.749 23.1248 313.468 22.492C312.186 21.8592 311.538 20.7812 312.017 20.0476C312.496 19.314 313.924 19.2076 315.205 19.8376C316.486 20.4676 317.129 21.5512 316.656 22.2848Z" fill="white"/>
<path d="M320.526 85.3156C320.526 89.5884 316.718 96.1208 312.02 96.1208C307.323 96.1208 303.515 89.5884 303.515 85.3156C303.515 81.0428 307.326 77.5792 312.02 77.5792C316.715 77.5792 320.526 81.04 320.526 85.3156Z" fill="#1FFA1F" fill-opacity="0.5" stroke="#151819" stroke-opacity="0.75" stroke-miterlimit="10"/>
<path d="M312.02 97.3192C312.02 97.3192 310.482 98.8452 310.482 102.326C310.482 105.806 315.421 106.895 314.534 112.66C313.647 118.426 308.832 118.86 308.076 122.777C307.319 126.694 310.227 127.89 310.227 127.89" stroke="#151819" stroke-opacity="0.75" stroke-miterlimit="10"/>
<path d="M312.02 96.1208C312.02 96.1208 310.354 98.0808 310.736 98.5176C311.117 98.9544 312.633 99.0636 312.76 98.4084C312.887 97.7532 312.02 96.1208 312.02 96.1208Z" fill="#1FFA1F" fill-opacity="0.5" stroke="#151819" stroke-opacity="0.75" stroke-miterlimit="10"/>
<path d="M317.993 82.5576C317.513 83.2912 316.086 83.3976 314.804 82.7676C313.523 82.1376 312.874 81.054 313.354 80.3204C313.833 79.5868 315.261 79.4804 316.542 80.1104C317.823 80.7404 318.472 81.824 317.993 82.5576Z" fill="white"/>
<path d="M196.633 25.04C196.633 29.3128 192.825 35.848 188.127 35.848C183.43 35.848 179.622 29.3128 179.622 25.04C179.622 20.7672 183.43 17.3036 188.127 17.3036C192.825 17.3036 196.633 20.7672 196.633 25.04Z" fill="#151819" fill-opacity="0.75" stroke="#151819" stroke-opacity="0.75" stroke-miterlimit="10"/>
<path d="M188.127 37.0436C188.127 37.0436 186.582 38.5696 186.582 42.0528C186.582 45.536 191.521 46.6196 190.634 52.3848C189.747 58.15 184.952 58.5868 184.179 62.504C183.407 66.4212 186.334 67.6168 186.334 67.6168" stroke="#151819" stroke-opacity="0.75" stroke-miterlimit="10"/>
<path d="M188.127 35.848C188.127 35.848 186.461 37.808 186.823 38.2448C187.185 38.6816 188.724 38.788 188.851 38.1356C188.978 37.4832 188.127 35.848 188.127 35.848Z" fill="#151819" fill-opacity="0.75" stroke="#151819" stroke-opacity="0.75" stroke-miterlimit="10"/>
<path d="M194.1 22.2848C193.62 23.0156 192.192 23.1248 190.911 22.492C189.63 21.8592 188.981 20.7812 189.461 20.0476C189.94 19.314 191.368 19.2076 192.649 19.8376C193.93 20.4676 194.579 21.5512 194.1 22.2848Z" fill="white"/>
<path d="M195.113 86.3208C195.113 90.5936 191.302 97.1288 186.608 97.1288C181.914 97.1288 178.106 90.5936 178.106 86.3208C178.106 82.048 181.914 78.5844 186.611 78.5844C191.309 78.5844 195.113 82.048 195.113 86.3208Z" fill="#151819" fill-opacity="0.75" stroke="#151819" stroke-opacity="0.75" stroke-miterlimit="10"/>
<path d="M186.608 98.3244C186.608 98.3244 185.066 99.8504 185.066 103.334C185.066 106.817 190.005 107.9 189.118 113.666C188.231 119.431 183.42 119.868 182.67 123.785C181.92 127.702 184.822 128.898 184.822 128.898" stroke="#151819" stroke-opacity="0.75" stroke-miterlimit="10"/>
<path d="M186.608 97.1288C186.608 97.1288 184.939 99.0888 185.32 99.5256C185.702 99.9624 187.218 100.069 187.345 99.4164C187.472 98.764 186.608 97.1288 186.608 97.1288Z" fill="#151819" fill-opacity="0.75" stroke="#151819" stroke-opacity="0.75" stroke-miterlimit="10"/>
<path d="M192.577 83.5656C193.057 82.832 192.407 81.7366 191.126 81.1189C189.845 80.5012 188.417 80.5951 187.938 81.3286C187.459 82.0622 188.108 83.1576 189.389 83.7753C190.671 84.393 192.098 84.2991 192.577 83.5656Z" fill="white"/>
<path d="M209.249 62.182C209.249 66.452 205.441 72.9872 200.743 72.9872C196.046 72.9872 192.238 66.452 192.238 62.182C192.238 57.912 196.036 54.44 200.743 54.44C205.451 54.44 209.249 57.9092 209.249 62.182Z" fill="#1FFA1F" fill-opacity="0.5" stroke="#151819" stroke-opacity="0.75" stroke-miterlimit="10"/>
<path d="M200.743 74.1856C200.743 74.1856 199.205 75.72 199.205 79.192C199.205 82.664 204.144 83.7616 203.257 89.5268C202.37 95.292 197.555 95.726 196.795 99.6432C196.036 103.56 198.95 104.756 198.95 104.756" stroke="#151819" stroke-opacity="0.75" stroke-miterlimit="10"/>
<path d="M200.743 72.9872C200.743 72.9872 199.078 74.9472 199.439 75.384C199.801 75.8208 201.34 75.9272 201.467 75.2748C201.594 74.6224 200.743 72.9872 200.743 72.9872Z" fill="#1FFA1F" fill-opacity="0.5" stroke="#151819" stroke-opacity="0.75" stroke-miterlimit="10"/>
<path d="M206.717 59.4262C207.196 58.6927 206.546 57.5973 205.265 56.9795C203.984 56.3618 202.557 56.4557 202.077 57.1892C201.598 57.9228 202.248 59.0182 203.529 59.6359C204.81 60.2537 206.237 60.1598 206.717 59.4262Z" fill="white"/>
<path d="M304.998 62.9548C304.998 67.2248 301.191 73.76 296.493 73.76C291.795 73.76 287.988 67.2248 287.988 62.9548C287.988 58.6848 291.795 55.2184 296.493 55.2184C301.191 55.2184 304.998 58.682 304.998 62.9548Z" fill="#151819" fill-opacity="0.75" stroke="#151819" stroke-opacity="0.75" stroke-miterlimit="10"/>
<path d="M296.493 74.9584C296.493 74.9584 294.951 76.4844 294.951 79.9648C294.951 83.4452 299.893 84.5344 299.006 90.2996C298.12 96.0648 293.305 96.4988 292.532 100.416C291.759 104.333 294.687 105.529 294.687 105.529" stroke="#151819" stroke-opacity="0.75" stroke-miterlimit="10"/>
<path d="M296.493 73.76C296.493 73.76 294.824 75.72 295.205 76.1568C295.587 76.5936 297.106 76.7028 297.233 76.0476C297.36 75.3924 296.493 73.76 296.493 73.76Z" fill="#151819" fill-opacity="0.75" stroke="#151819" stroke-opacity="0.75" stroke-miterlimit="10"/>
<path d="M302.465 60.1968C301.986 60.9304 300.558 61.0228 299.277 60.4068C297.996 59.7908 297.347 58.6932 297.826 57.9596C298.305 57.226 299.733 57.1336 301.011 57.7496C302.289 58.3656 302.944 59.4632 302.465 60.1968Z" fill="white"/>
<path d="M221.314 57.5911C222.628 56.4626 222.628 54.633 221.314 53.5046C220 52.3761 217.87 52.3761 216.556 53.5046C215.243 54.633 215.243 56.4626 216.556 57.5911C217.87 58.7195 220 58.7195 221.314 57.5911Z" fill="#1FFA1F" fill-opacity="0.5" stroke="#151819" stroke-opacity="0.75" stroke-miterlimit="10"/>
<path d="M232.626 37.0265C233.32 35.5462 232.485 33.8628 230.762 33.2665C229.038 32.6702 227.078 33.3869 226.384 34.8672C225.69 36.3475 226.524 38.0309 228.248 38.6272C229.971 39.2234 231.931 38.5068 232.626 37.0265Z" fill="white" stroke="#151819" stroke-opacity="0.75" stroke-miterlimit="10"/>
<path d="M255.208 31.2028C257.066 31.2028 258.573 29.9091 258.573 28.3132C258.573 26.7173 257.066 25.4236 255.208 25.4236C253.35 25.4236 251.844 26.7173 251.844 28.3132C251.844 29.9091 253.35 31.2028 255.208 31.2028Z" fill="#1FFA1F" fill-opacity="0.5" stroke="#151819" stroke-opacity="0.75" stroke-miterlimit="10"/>
<path d="M273.464 46.264C275.322 46.264 276.829 44.9703 276.829 43.3744C276.829 41.7785 275.322 40.4848 273.464 40.4848C271.606 40.4848 270.1 41.7785 270.1 43.3744C270.1 44.9703 271.606 46.264 273.464 46.264Z" fill="white" stroke="#151819" stroke-opacity="0.75" stroke-miterlimit="10"/>
<path d="M334.052 48L242 130.914L269.299 161.222L361.352 78.308L334.052 48Z" fill="#B5C8BA"/>
<path d="M266.373 137.939C264.226 135.601 264.481 132.279 266.895 130.055C267.473 129.475 268.175 129.034 268.947 128.764C269.72 128.494 270.543 128.402 271.357 128.495L271.179 130.618C270.677 130.548 270.167 130.591 269.684 130.744C269.202 130.897 268.76 131.156 268.39 131.502C267.768 132.117 267.408 132.949 267.386 133.823C267.365 134.698 267.685 135.547 268.277 136.19C268.869 136.834 269.688 137.223 270.562 137.275C271.435 137.326 272.294 137.037 272.958 136.468C273.335 136.128 273.631 135.708 273.823 135.239C274.015 134.769 274.099 134.263 274.068 133.756H276.197C276.226 134.578 276.067 135.396 275.733 136.147C275.399 136.898 274.898 137.564 274.269 138.093C271.861 140.306 268.527 140.282 266.373 137.939Z" fill="white"/>
<path d="M281.999 127.67L278.398 130.98L279.24 133.276L277.401 134.973L273.694 124.04L275.474 122.408L286.086 126.976L284.2 128.708L281.999 127.67ZM280.178 126.828L276.215 124.983L277.722 129.088L280.178 126.828Z" fill="white"/>
<path d="M286.869 111.926L293.988 119.691L292.517 121.044L284.313 119.893L288.649 124.603L286.869 126.234L279.751 118.475L281.24 117.111L289.432 118.297L285.096 113.551L286.869 111.926Z" fill="white"/>
<path d="M291.787 114.566C289.639 112.228 289.894 108.901 292.309 106.682C292.888 106.105 293.59 105.666 294.362 105.396C295.134 105.127 295.957 105.036 296.77 105.128L296.592 107.251C296.09 107.182 295.579 107.226 295.097 107.38C294.614 107.534 294.173 107.794 293.804 108.141C293.181 108.756 292.821 109.588 292.8 110.462C292.779 111.337 293.098 112.186 293.69 112.829C294.282 113.473 295.102 113.862 295.975 113.914C296.848 113.965 297.707 113.676 298.372 113.106C298.749 112.767 299.045 112.346 299.238 111.875C299.43 111.405 299.513 110.897 299.481 110.39H301.611C301.639 111.21 301.481 112.027 301.147 112.777C300.813 113.528 300.312 114.192 299.683 114.72C297.274 116.927 293.94 116.903 291.787 114.566Z" fill="white"/>
<path d="M308.653 103.562L309.982 104.997L303.948 110.526L296.83 102.755L302.697 97.3624L304.02 98.8039L299.944 102.553L301.493 104.238L305.093 100.928L306.381 102.322L302.762 105.65L304.411 107.429L308.653 103.562Z" fill="white"/>
<path d="M304.269 95.9268L306.048 94.2717L311.838 100.572L315.73 97.0124L317.076 98.4717L311.387 103.704L304.269 95.9268Z" fill="white"/>
<path d="M310.966 89.7691L312.745 88.12L318.541 94.414L322.433 90.8547L323.773 92.314L318.09 97.5463L310.966 89.7691Z" fill="white"/>
<path d="M329.456 84.4064L330.779 85.8479L324.77 91.3708L317.651 83.6115L323.518 78.2191L324.841 79.6606L320.76 83.4098L322.314 85.0945L325.915 81.7844L327.202 83.1784L323.601 86.4945L325.256 88.2742L329.456 84.4064Z" fill="white"/>
<path d="M325.096 76.7717L328.62 73.5267C331.159 71.1954 334.303 71.1539 336.468 73.4733C338.634 75.7928 338.296 78.9547 335.757 81.292L332.233 84.531L325.096 76.7717ZM334.315 79.8979C335.852 78.4801 336.018 76.6293 334.647 75.1522C333.277 73.675 331.426 73.675 329.902 75.0928L328.27 76.5937L332.696 81.4047L334.315 79.8979Z" fill="white"/>
</svg>
